<svg width="101" height="79" viewBox="0 0 101 79" fill="none" xmlns="http://www.w3.org/2000/svg">
<g clip-path="url(#clip0)">
<path d="M98.7709 60.4829V57.2278C98.7709 56.6625 98.2975 56.1947 97.7254 56.1947H84.4889C83.9168 56.1947 83.4434 56.6625 83.4434 57.2278V60.4829H98.7709Z" fill="#F47EB7"/>
<path d="M81.1948 73.0355V77.9669C81.1948 78.5322 81.6683 79 82.2403 79H84.1341C84.7061 79 85.1796 78.5322 85.1796 77.9669V73.0355H81.1948Z" fill="#F47EB7"/>
<path d="M97.0156 77.9669C97.0156 78.5322 97.4891 79 98.0611 79H99.9549C100.527 79 101 78.5322 101 77.9669V73.0355H97.0156V77.9669Z" fill="#F47EB7"/>
<path d="M101 68.6108H81.1948V73.6592H101V68.6108Z" fill="#D15993"/>
<path d="M99.935 59.859H82.2601C81.6683 59.859 81.1948 60.3268 81.1948 60.9116V69.293H101V60.9116C101 60.3268 100.527 59.859 99.935 59.859Z" fill="#D15993"/>
<path d="M93.1288 66.7591H89.0849C88.2366 66.7591 87.5659 66.0768 87.5659 65.2582C87.5659 64.42 88.2563 63.7573 89.0849 63.7573H93.1288C93.9771 63.7573 94.6478 64.4395 94.6478 65.2582C94.6478 66.0963 93.9573 66.7591 93.1288 66.7591Z" fill="#FCADD3"/>
<path d="M9.74463 74.9262V32.7656C9.74463 31.9664 9.07393 31.3037 8.26514 31.3037C7.45635 31.3037 6.78564 31.9664 6.78564 32.7656V74.9262H9.74463Z" fill="#D15993"/>
<path d="M15.1894 74.283H2.56436C2.01201 74.283 1.53857 74.7313 1.53857 75.277V78.0059C1.53857 78.5516 1.99229 79 2.56436 79H15.1894V74.283Z" fill="#D15993"/>
<path d="M16.5111 34.4613C16.5111 35.0071 16.0574 35.4554 15.4854 35.4554H1.02578C0.473438 35.4554 0 35.0071 0 34.4613V16.2171C0 15.6713 0.453711 15.2035 1.02578 15.2035H15.5051C16.0574 15.2035 16.5309 15.6518 16.5309 16.2171L16.5111 34.4613Z" fill="#FCADD3"/>
<path d="M4.35957 34.4613V16.2171C4.35957 15.6713 4.81328 15.2035 5.38535 15.2035H1.02578C0.473437 15.2035 0 15.6518 0 16.2171V34.4418C0 34.9876 0.453711 35.4359 1.02578 35.4359H5.38535C4.83301 35.4554 4.35957 35.0071 4.35957 34.4613Z" fill="#D15993"/>
<path d="M72.0019 41.9266H23.1393C22.0148 41.9266 21.1074 42.8233 21.1074 43.9343V64.2447H74.0338V43.9343C74.0338 42.8427 73.1066 41.9266 72.0019 41.9266Z" fill="#D15993"/>
<path d="M49.0405 41.9266H46.0815V64.2447H49.0405V41.9266Z" fill="#F47EB7"/>
<path d="M40.3405 63.2507C40.3405 63.7965 39.8868 64.2643 39.3345 64.2643H30.1813C29.629 64.2643 29.1753 63.816 29.1753 63.2507V54.226C29.1753 53.6802 29.629 53.2319 30.1813 53.2319H39.3148C39.8671 53.2319 40.3208 53.6802 40.3208 54.226V63.2507H40.3405Z" fill="#FCADD3"/>
<path d="M66.7941 63.2507C66.7941 63.7965 66.3404 64.2643 65.7881 64.2643H56.6547C56.1023 64.2643 55.6289 63.816 55.6289 63.2507V54.226C55.6289 53.6802 56.0826 53.2319 56.6547 53.2319H65.7881C66.3404 53.2319 66.7941 53.6802 66.7941 54.226V63.2507Z" fill="#FCADD3"/>
<path d="M74.0338 63.5237H21.1074V73.8543H74.0338V63.5237Z" fill="#F47EB7"/>
<path d="M20.9101 55.9607H15.939C14.7948 55.9607 13.8677 56.8768 13.8677 58.0073V77.9669C13.8677 78.5321 14.3411 78.9804 14.8935 78.9804H21.9161C22.4882 78.9804 22.9419 78.5126 22.9419 77.9669V58.0073C22.9813 56.8768 22.0345 55.9607 20.9101 55.9607Z" fill="#FCADD3"/>
<path d="M18.247 77.9669V58.0073C18.247 56.8768 19.1741 55.9607 20.3183 55.9607H15.939C14.7948 55.9607 13.8677 56.8768 13.8677 58.0073V77.9669C13.8677 78.5321 14.3411 78.9804 14.8935 78.9804H19.253C18.7007 78.9999 18.247 78.5321 18.247 77.9669Z" fill="#F47EB7"/>
<path d="M79.2019 55.9607H74.2505C73.1063 55.9607 72.1792 56.8768 72.1792 58.0073V77.9669C72.1792 78.5321 72.6526 78.9804 73.205 78.9804H80.2276C80.7997 78.9804 81.2534 78.5126 81.2534 77.9669V58.0073C81.2731 56.8768 80.3263 55.9607 79.2019 55.9607Z" fill="#FCADD3"/>
<path d="M75.4935 77.9669V58.0073C75.4935 56.8768 76.4206 55.9607 77.5648 55.9607H74.231C73.0868 55.9607 72.1597 56.8768 72.1597 58.0073V77.9669C72.1597 78.5321 72.6331 78.9804 73.1855 78.9804H76.539C75.9669 78.9999 75.4935 78.5321 75.4935 77.9669Z" fill="#F47EB7"/>
<path d="M70.4038 4.61963H24.7368C24.145 4.61963 23.6519 5.10692 23.6519 5.69167V30.6216C23.6519 31.2064 24.145 31.6937 24.7368 31.6937H70.4038C70.9956 31.6937 71.4888 31.2064 71.4888 30.6216V5.69167C71.4888 5.10692 70.9956 4.61963 70.4038 4.61963Z" fill="#D15993"/>
<path d="M28.564 27.4248C28.2483 27.4248 27.9722 27.1519 27.9722 26.8401V9.47294C27.9722 9.14158 28.2483 8.88818 28.564 8.88818H66.5968C66.9124 8.88818 67.1886 9.14158 67.1886 9.47294V26.8401C67.1886 27.1519 66.9124 27.4248 66.5968 27.4248H28.564Z" fill="#FCADD3"/>
<path d="M81.7666 41.9073C81.5299 41.9073 81.3129 41.7513 81.2537 41.5174C80.4055 38.7886 79.8334 38.2233 77.1111 37.3657C76.8941 37.2877 76.7363 37.0928 76.7363 36.8394C76.7363 36.6055 76.8941 36.3911 77.1111 36.3326C79.8334 35.4945 80.4055 34.9097 81.2537 32.1809C81.3326 31.947 81.5299 31.8105 81.7666 31.8105C82.0033 31.8105 82.2203 31.9665 82.2795 32.1809C83.1277 34.9097 83.6998 35.475 86.4221 36.3326C86.6391 36.4106 86.7969 36.6055 86.7969 36.8394C86.7969 37.0733 86.6391 37.2877 86.4221 37.3657C83.6998 38.2038 83.1277 38.7886 82.2795 41.5174C82.2006 41.7513 82.0033 41.9073 81.7666 41.9073Z" fill="#FCADD3"/>
<path d="M89.2032 20.4274C88.9468 20.4274 88.7101 20.252 88.6312 19.9986C87.6843 16.9774 87.053 16.3341 84.0349 15.3985C83.7784 15.3206 83.6206 15.0867 83.6206 14.8333C83.6206 14.5799 83.7981 14.346 84.0349 14.268C87.053 13.3324 87.6843 12.6892 88.6312 9.66795C88.7101 9.41456 88.9468 9.23914 89.2032 9.23914C89.4597 9.23914 89.6964 9.41456 89.7753 9.66795C90.7222 12.6892 91.3534 13.3324 94.3716 14.268C94.628 14.346 94.7859 14.5799 94.7859 14.8333C94.7859 15.0867 94.6083 15.3206 94.3716 15.3985C91.3534 16.3341 90.7222 16.9774 89.7753 19.9986C89.6964 20.252 89.4794 20.4274 89.2032 20.4274Z" fill="#FCADD3"/>
<path d="M14.1239 8.34246C13.9267 8.34246 13.7491 8.20602 13.6899 8.03059C12.9798 5.76955 12.5063 5.30175 10.2575 4.60005C10.08 4.54157 9.94189 4.36615 9.94189 4.17123C9.94189 3.97631 10.0603 3.80089 10.2575 3.74241C12.5063 3.04071 12.9995 2.55342 13.6899 0.311868C13.7491 0.11695 13.9267 0 14.1239 0C14.3212 0 14.4987 0.136442 14.5579 0.311868C15.2681 2.57291 15.7415 3.04071 17.9903 3.74241C18.1679 3.80089 18.306 3.97631 18.306 4.17123C18.306 4.36615 18.1876 4.54157 17.9903 4.60005C15.7415 5.30175 15.2483 5.78904 14.5579 8.03059C14.4987 8.22551 14.3212 8.34246 14.1239 8.34246Z" fill="#FCADD3"/>
<path d="M59.4954 17.7569L53.104 27.4248H66.597L60.2056 17.7569C59.9886 17.4645 59.6729 17.4645 59.4954 17.7569Z" fill="#F47EB7"/>
<path d="M47.1466 13.0204L37.6187 27.4248H57.3847L47.8567 13.0204C47.6595 12.7281 47.3438 12.7281 47.1466 13.0204Z" fill="#D15993"/>
<path d="M35.0935 17.5425L28.564 27.4248H42.3331L35.8036 17.5425C35.6063 17.2501 35.2907 17.2501 35.0935 17.5425Z" fill="#F47EB7"/>
<path d="M98.7709 55.1616C98.7709 55.7269 98.2975 56.1947 97.7254 56.1947H84.4889C83.9168 56.1947 83.4434 55.7269 83.4434 55.1616V52.8226C83.4434 52.2573 83.9168 51.7896 84.4889 51.7896H97.7254C98.2975 51.7896 98.7709 52.2573 98.7709 52.8226V55.1616Z" fill="#D15993"/>
<g clip-path="url(#clip1)">
<path d="M98.7709 60.4829V57.2278C98.7709 56.6625 98.2975 56.1947 97.7254 56.1947H84.4889C83.9168 56.1947 83.4434 56.6625 83.4434 57.2278V60.4829H98.7709Z" fill="#AE4EB9"/>
<path d="M81.1948 73.0355V77.9669C81.1948 78.5322 81.6683 79 82.2403 79H84.1341C84.7061 79 85.1796 78.5322 85.1796 77.9669V73.0355H81.1948Z" fill="#AE4EB9"/>
<path d="M97.0156 77.9669C97.0156 78.5322 97.4891 79 98.0611 79H99.9549C100.527 79 101 78.5322 101 77.9669V73.0355H97.0156V77.9669Z" fill="#AE4EB9"/>
<path d="M101 68.6108H81.1948V73.6592H101V68.6108Z" fill="#AE4EB9"/>
<path d="M99.935 59.859H82.2601C81.6683 59.859 81.1948 60.3268 81.1948 60.9116V69.293H101V60.9116C101 60.3268 100.527 59.859 99.935 59.859Z" fill="#7E2E87"/>
<path d="M93.1288 66.7591H89.0849C88.2366 66.7591 87.5659 66.0768 87.5659 65.2582C87.5659 64.42 88.2563 63.7573 89.0849 63.7573H93.1288C93.9771 63.7573 94.6478 64.4395 94.6478 65.2582C94.6478 66.0963 93.9573 66.7591 93.1288 66.7591Z" fill="#D47DDE"/>
<path d="M9.74463 74.9262V32.7656C9.74463 31.9664 9.07393 31.3037 8.26514 31.3037C7.45635 31.3037 6.78564 31.9664 6.78564 32.7656V74.9262H9.74463Z" fill="#7E2E87"/>
<path d="M15.1894 74.283H2.56436C2.01201 74.283 1.53857 74.7313 1.53857 75.277V78.0059C1.53857 78.5516 1.99229 79 2.56436 79H15.1894V74.283Z" fill="#7E2E87"/>
<path d="M16.5111 34.4613C16.5111 35.0071 16.0574 35.4554 15.4854 35.4554H1.02578C0.473438 35.4554 0 35.0071 0 34.4613V16.2171C0 15.6713 0.453711 15.2035 1.02578 15.2035H15.5051C16.0574 15.2035 16.5309 15.6518 16.5309 16.2171L16.5111 34.4613Z" fill="#D47DDE"/>
<path d="M4.35957 34.4613V16.2171C4.35957 15.6713 4.81328 15.2035 5.38535 15.2035H1.02578C0.473437 15.2035 0 15.6518 0 16.2171V34.4418C0 34.9876 0.453711 35.4359 1.02578 35.4359H5.38535C4.83301 35.4554 4.35957 35.0071 4.35957 34.4613Z" fill="#7E2E87"/>
<path d="M72.0019 41.9266H23.1393C22.0148 41.9266 21.1074 42.8233 21.1074 43.9343V64.2447H74.0338V43.9343C74.0338 42.8427 73.1066 41.9266 72.0019 41.9266Z" fill="#7E2E87"/>
<path d="M49.0405 41.9266H46.0815V64.2447H49.0405V41.9266Z" fill="#AE4EB9"/>
<path d="M40.3405 63.2507C40.3405 63.7965 39.8868 64.2643 39.3345 64.2643H30.1813C29.629 64.2643 29.1753 63.816 29.1753 63.2507V54.226C29.1753 53.6802 29.629 53.2319 30.1813 53.2319H39.3148C39.8671 53.2319 40.3208 53.6802 40.3208 54.226V63.2507H40.3405Z" fill="#D47DDE"/>
<path d="M66.7941 63.2507C66.7941 63.7965 66.3404 64.2643 65.7881 64.2643H56.6547C56.1023 64.2643 55.6289 63.816 55.6289 63.2507V54.226C55.6289 53.6802 56.0826 53.2319 56.6547 53.2319H65.7881C66.3404 53.2319 66.7941 53.6802 66.7941 54.226V63.2507Z" fill="#D47DDE"/>
<path d="M74.0338 63.5237H21.1074V73.8543H74.0338V63.5237Z" fill="#AE4EB9"/>
<path d="M20.9101 55.9607H15.939C14.7948 55.9607 13.8677 56.8768 13.8677 58.0073V77.9669C13.8677 78.5321 14.3411 78.9804 14.8935 78.9804H21.9161C22.4882 78.9804 22.9419 78.5126 22.9419 77.9669V58.0073C22.9813 56.8768 22.0345 55.9607 20.9101 55.9607Z" fill="#D47DDE"/>
<path d="M18.247 77.9669V58.0073C18.247 56.8768 19.1741 55.9607 20.3183 55.9607H15.939C14.7948 55.9607 13.8677 56.8768 13.8677 58.0073V77.9669C13.8677 78.5321 14.3411 78.9804 14.8935 78.9804H19.253C18.7007 78.9999 18.247 78.5321 18.247 77.9669Z" fill="#7E2E87"/>
<path d="M79.2019 55.9607H74.2505C73.1063 55.9607 72.1792 56.8768 72.1792 58.0073V77.9669C72.1792 78.5321 72.6526 78.9804 73.205 78.9804H80.2276C80.7997 78.9804 81.2534 78.5126 81.2534 77.9669V58.0073C81.2731 56.8768 80.3263 55.9607 79.2019 55.9607Z" fill="#D47DDE"/>
<path d="M75.4935 77.9669V58.0073C75.4935 56.8768 76.4206 55.9607 77.5648 55.9607H74.231C73.0868 55.9607 72.1597 56.8768 72.1597 58.0073V77.9669C72.1597 78.5321 72.6331 78.9804 73.1855 78.9804H76.539C75.9669 78.9999 75.4935 78.5321 75.4935 77.9669Z" fill="#7E2E87"/>
<path d="M70.4038 4.61963H47.5703H24.7368C24.145 4.61963 23.6519 5.10692 23.6519 5.69167V30.6216C23.6519 31.2064 24.145 31.6937 24.7368 31.6937H70.4038C70.9956 31.6937 71.4888 31.2064 71.4888 30.6216V5.69167C71.4888 5.10692 70.9956 4.61963 70.4038 4.61963Z" fill="#7E2E87"/>
<path d="M28.564 27.4248C28.2483 27.4248 27.9722 27.1519 27.9722 26.8401V9.47294C27.9722 9.14158 28.2483 8.88818 28.564 8.88818H66.5968C66.9124 8.88818 67.1886 9.14158 67.1886 9.47294V26.8401C67.1886 27.1519 66.9124 27.4248 66.5968 27.4248H28.564Z" fill="#D47DDE"/>
<path d="M81.7666 41.9073C81.5299 41.9073 81.3129 41.7513 81.2537 41.5174C80.4055 38.7886 79.8334 38.2233 77.1111 37.3657C76.8941 37.2877 76.7363 37.0928 76.7363 36.8394C76.7363 36.6055 76.8941 36.3911 77.1111 36.3326C79.8334 35.4945 80.4055 34.9097 81.2537 32.1809C81.3326 31.947 81.5299 31.8105 81.7666 31.8105C82.0033 31.8105 82.2203 31.9665 82.2795 32.1809C83.1277 34.9097 83.6998 35.475 86.4221 36.3326C86.6391 36.4106 86.7969 36.6055 86.7969 36.8394C86.7969 37.0733 86.6391 37.2877 86.4221 37.3657C83.6998 38.2038 83.1277 38.7886 82.2795 41.5174C82.2006 41.7513 82.0033 41.9073 81.7666 41.9073Z" fill="#D47DDE"/>
<path d="M89.2032 20.4274C88.9468 20.4274 88.7101 20.252 88.6312 19.9986C87.6843 16.9774 87.053 16.3341 84.0349 15.3985C83.7784 15.3206 83.6206 15.0867 83.6206 14.8333C83.6206 14.5799 83.7981 14.346 84.0349 14.268C87.053 13.3324 87.6843 12.6892 88.6312 9.66795C88.7101 9.41456 88.9468 9.23914 89.2032 9.23914C89.4597 9.23914 89.6964 9.41456 89.7753 9.66795C90.7222 12.6892 91.3534 13.3324 94.3716 14.268C94.628 14.346 94.7859 14.5799 94.7859 14.8333C94.7859 15.0867 94.6083 15.3206 94.3716 15.3985C91.3534 16.3341 90.7222 16.9774 89.7753 19.9986C89.6964 20.252 89.4794 20.4274 89.2032 20.4274Z" fill="#D47DDE"/>
<path d="M14.1239 8.34246C13.9267 8.34246 13.7491 8.20602 13.6899 8.03059C12.9798 5.76955 12.5063 5.30175 10.2575 4.60005C10.08 4.54157 9.94189 4.36615 9.94189 4.17123C9.94189 3.97631 10.0603 3.80089 10.2575 3.74241C12.5063 3.04071 12.9995 2.55342 13.6899 0.311868C13.7491 0.11695 13.9267 0 14.1239 0C14.3212 0 14.4987 0.136442 14.5579 0.311868C15.2681 2.57291 15.7415 3.04071 17.9903 3.74241C18.1679 3.80089 18.306 3.97631 18.306 4.17123C18.306 4.36615 18.1876 4.54157 17.9903 4.60005C15.7415 5.30175 15.2483 5.78904 14.5579 8.03059C14.4987 8.22551 14.3212 8.34246 14.1239 8.34246Z" fill="#D47DDE"/>
<path d="M59.4954 17.7569L53.104 27.4248H66.597L60.2056 17.7569C59.9886 17.4645 59.6729 17.4645 59.4954 17.7569Z" fill="#AE4EB9"/>
<path d="M47.1466 13.0204L37.6187 27.4248H57.3847L47.8567 13.0204C47.6595 12.7281 47.3438 12.7281 47.1466 13.0204Z" fill="#7E2E87"/>
<path d="M35.0935 17.5425L28.564 27.4248H42.3331L35.8036 17.5425C35.6063 17.2501 35.2907 17.2501 35.0935 17.5425Z" fill="#AE4EB9"/>
<path d="M98.7709 55.1616C98.7709 55.7269 98.2975 56.1947 97.7254 56.1947H84.4889C83.9168 56.1947 83.4434 55.7269 83.4434 55.1616V52.8226C83.4434 52.2573 83.9168 51.7896 84.4889 51.7896H97.7254C98.2975 51.7896 98.7709 52.2573 98.7709 52.8226V55.1616Z" fill="#7E2E87"/>
</g>
</g>
<defs>
<clipPath id="clip0">
<rect width="101" height="79" fill="white"/>
</clipPath>
<clipPath id="clip1">
<rect width="101" height="79" fill="white"/>
</clipPath>
</defs>
</svg>
