<svg width="24" height="21" viewBox="0 0 24 21" fill="none" xmlns="http://www.w3.org/2000/svg">
<path fill-rule="evenodd" clip-rule="evenodd" d="M19.5782 2.62835C17.5422 0.724033 15.6062 0.135498 15.6062 0.135498L11.701 13.9327H11.6676L7.72896 0.135498C7.72896 0.135498 5.793 0.706757 3.75693 2.62835C1.58732 4.67103 -0.281837 7.80443 0.0352466 12.7728C0.285599 16.7024 3.08938 20.0436 3.08938 20.0436L8.51338 20.0262C8.51338 20.0262 3.85709 17.4642 2.73892 13.4306C1.40377 8.66999 3.48992 5.36347 5.09209 3.78814C5.74298 3.19954 6.69424 3.06103 7.04469 4.32479C8.24632 8.35836 11.6843 19.9051 11.6843 19.9051L11.701 19.9051C11.701 19.9051 15.1223 8.35841 16.3406 4.32485C16.7077 3.06108 17.659 3.19961 18.2932 3.7882C19.8953 5.36354 21.9815 8.66999 20.6463 13.4307C19.5282 17.4642 14.8719 20.0263 14.8719 20.0263L20.2959 20.0436C20.2959 20.0436 23.1164 16.6852 23.35 12.7728C23.6337 7.80443 21.7645 4.67103 19.5782 2.62835Z" fill="none"/>
</svg>
