<svg width="164" height="40" viewBox="0 0 164 40" fill="none" xmlns="http://www.w3.org/2000/svg">
<path d="M150.847 0H13.0159C12.6048 0 12.0568 0 11.5088 0C11.0977 0 10.6867 0 10.2757 0C9.31662 0 8.49457 0.1 7.5355 0.2C6.57644 0.3 5.75439 0.5 4.93233 0.8C4.11028 1.1 3.42523 1.5 2.74018 2C2.05514 2.5 1.5071 3 1.09607 3.6C0.685046 4.2 0.411028 4.9 0.274018 5.5C0.137009 6.2 0 6.9 0 7.5C0 7.8 0 8.1 0 8.4C0 8.8 0 9.1 0 9.5V30.4C0 30.8 0 31.1 0 31.5C0 31.8 0 32.1 0 32.4C0 33.1 0.137009 33.7 0.274018 34.4C0.411028 35.1 0.685046 35.7 1.09607 36.3C1.5071 37 2.05514 37.5 2.74018 38C3.42523 38.5 4.11028 38.9 4.93233 39.2C5.75439 39.5 6.57644 39.7 7.5355 39.8C8.49457 39.9 9.31662 40 10.2757 40C10.6867 40 11.0977 40 11.5088 40C12.0568 40 12.4678 40 13.0159 40H150.847C151.395 40 151.806 40 152.354 40C152.765 40 153.176 40 153.587 40C154.546 40 155.368 39.9 156.327 39.8C157.287 39.7 158.109 39.5 158.931 39.2C159.753 38.9 160.438 38.5 161.123 38C161.808 37.5 162.356 37 162.767 36.4C163.178 35.8 163.452 35.2 163.589 34.5C163.726 33.8 163.863 33.2 163.863 32.5C163.863 32.2 163.863 31.9 163.863 31.6C163.863 31.2 163.863 30.9 163.863 30.5V9.5C163.863 9.1 163.863 8.8 163.863 8.4C163.863 8.1 163.863 7.8 163.863 7.5C163.863 6.8 163.726 6.2 163.589 5.5C163.452 4.8 163.178 4.2 162.767 3.6C162.356 3 161.808 2.5 161.123 2C160.438 1.5 159.753 1.1 158.931 0.8C158.109 0.5 157.287 0.3 156.327 0.2C155.368 0.1 154.546 0 153.587 0C153.176 0 152.765 0 152.354 0C151.943 0 151.395 0 150.847 0Z" fill="#B7B7B7"/>
<path d="M11.5088 39.1C11.0977 39.1 10.6867 39.1 10.2757 39.1C9.45363 39.1 8.63157 39.1 7.67251 38.9C6.85045 38.8 6.0284 38.6 5.34335 38.4C4.65831 38.1 3.97326 37.8 3.42523 37.4C2.87719 37 2.32915 36.5 2.05513 36C1.64411 35.5 1.5071 35 1.37009 34.3C1.23308 33.6 1.09607 32.9 1.09607 32.4C1.09607 32.2 1.09607 31.5 1.09607 31.5V8.4C1.09607 8.4 1.09607 7.7 1.09607 7.5C1.09607 7 1.09607 6.3 1.37009 5.6C1.64411 5.1 1.78112 4.5 2.19214 4C2.60317 3.5 3.0142 3 3.56223 2.6C4.11027 2.2 4.79532 1.9 5.48036 1.6C6.16541 1.3 6.98746 1.2 7.80952 1.1C8.63157 0.900002 9.59064 0.900002 10.2757 0.900002H11.5088H152.354H153.587C154.272 0.900002 155.231 0.900002 156.19 1.1C157.013 1.2 157.698 1.4 158.52 1.6C159.205 1.9 159.89 2.2 160.438 2.6C160.986 3 161.534 3.5 161.808 4C162.219 4.5 162.356 5.1 162.493 5.6C162.63 6.2 162.767 6.9 162.767 7.5C162.767 7.8 162.767 8.1 162.767 8.4C162.767 8.8 162.767 9.1 162.767 9.5V30.4C162.767 30.8 162.767 31.1 162.767 31.5C162.767 31.8 162.767 32.1 162.767 32.4C162.767 33 162.63 33.6 162.493 34.3C162.356 34.9 162.082 35.5 161.808 36C161.397 36.5 160.986 37 160.438 37.4C159.89 37.8 159.205 38.2 158.52 38.4C157.835 38.7 157.15 38.8 156.19 38.9C155.368 39 154.409 39 153.587 39.1C153.176 39.1 152.765 39.1 152.354 39.1H150.847H11.5088Z" fill="#000001"/>
<path d="M24.8 20.3C24.8 17.5 27.1 16.2 27.2 16.1C25.9 14.2 23.9 14 23.2 13.9C21.5 13.7 19.9 14.9 19 14.9C18.1 14.9 16.8 13.9 15.4 13.9C13.6 13.9 11.9 15 10.9 16.6C8.99999 19.9 10.4 24.9 12.3 27.6C13.2 28.9 14.3 30.4 15.7 30.4C17.1 30.3 17.6 29.5 19.3 29.5C21 29.5 21.4 30.4 22.9 30.4C24.4 30.4 25.3 29.1 26.2 27.7C27.3 26.2 27.7 24.7 27.7 24.6C27.7 24.7 24.8 23.6 24.8 20.3Z" fill="white"/>
<path d="M22 12.2C22.7 11.3 23.3 10 23.1 8.7C22 8.7 20.7 9.4 19.9 10.4C19.2 11.2 18.6 12.5 18.8 13.8C20 13.8 21.3 13.1 22 12.2Z" fill="white"/>
<path d="M42.3 27.1H37.6L36.5 30.5H34.5L39 18.1H41L45.5 30.5H43.5L42.3 27.1ZM38.1 25.6H41.9L40 20.1H39.9L38.1 25.6Z" fill="white"/>
<path d="M55.2 26C55.2 28.8 53.7 30.6 51.4 30.6C50.1 30.6 49.1 30 48.6 29V33.5H46.7V21.5H48.5V23C49 22 50.1 21.4 51.4 21.4C53.6 21.3 55.2 23.2 55.2 26ZM53.2 26C53.2 24.2 52.3 23 50.8 23C49.4 23 48.4 24.2 48.4 26C48.4 27.8 49.4 29 50.8 29C52.3 29 53.2 27.8 53.2 26Z" fill="white"/>
<path d="M65.1 26C65.1 28.8 63.6 30.6 61.3 30.6C60 30.6 59 30 58.5 29V33.5H56.6V21.5H58.4V23C58.9 22 60 21.4 61.3 21.4C63.6 21.3 65.1 23.2 65.1 26ZM63.2 26C63.2 24.2 62.3 23 60.8 23C59.4 23 58.4 24.2 58.4 26C58.4 27.8 59.4 29 60.8 29C62.3 29 63.2 27.8 63.2 26Z" fill="white"/>
<path d="M71.7 27C71.8 28.2 73 29 74.7 29C76.3 29 77.4 28.2 77.4 27.1C77.4 26.1 76.7 25.6 75.1 25.2L73.5 24.8C71.2 24.2 70.2 23.2 70.2 21.5C70.2 19.4 72.1 17.9 74.7 17.9C77.3 17.9 79.1 19.4 79.2 21.5H77.3C77.2 20.3 76.2 19.5 74.7 19.5C73.2 19.5 72.2 20.3 72.2 21.4C72.2 22.3 72.9 22.8 74.5 23.2L75.9 23.5C78.4 24.1 79.5 25.1 79.5 26.9C79.5 29.2 77.6 30.7 74.7 30.7C71.9 30.7 70.1 29.3 70 27H71.7Z" fill="white"/>
<path d="M83.3 19.3V21.4H85V22.9H83.3V27.9C83.3 28.7 83.6 29 84.4 29C84.6 29 84.9 29 85 29V30.5C84.8 30.6 84.4 30.6 84 30.6C82.2 30.6 81.5 29.9 81.5 28.2V23H80.2V21.5H81.5V19.4H83.3V19.3Z" fill="white"/>
<path d="M86.1 26C86.1 23.2 87.8 21.4 90.4 21.4C93 21.4 94.7 23.2 94.7 26C94.7 28.9 93 30.6 90.4 30.6C87.7 30.6 86.1 28.8 86.1 26ZM92.8 26C92.8 24 91.9 22.9 90.4 22.9C88.9 22.9 88 24 88 26C88 28 88.9 29.1 90.4 29.1C91.9 29.1 92.8 27.9 92.8 26Z" fill="white"/>
<path d="M96.2 21.4H98V23C98.3 22 99.1 21.4 100.2 21.4C100.5 21.4 100.7 21.4 100.8 21.5V23.2C100.7 23.1 100.3 23.1 100 23.1C98.8 23.1 98.1 23.9 98.1 25.2V30.6H96.2V21.4Z" fill="white"/>
<path d="M109.4 27.8C109.1 29.4 107.5 30.6 105.5 30.6C102.9 30.6 101.2 28.8 101.2 26C101.2 23.2 102.8 21.3 105.4 21.3C107.9 21.3 109.5 23 109.5 25.8V26.4H103.1V26.5C103.1 28 104.1 29.1 105.5 29.1C106.5 29.1 107.3 28.6 107.6 27.8H109.4ZM103.1 25.1H107.6C107.6 23.7 106.7 22.8 105.4 22.8C104.1 22.8 103.2 23.8 103.1 25.1Z" fill="white"/>
<path d="M36.7 11.3H37.5C38.2 11.3 38.6 10.9 38.6 10.3C38.6 9.7 38.2 9.4 37.5 9.4C36.8 9.4 36.3 9.8 36.3 10.3H35.4C35.5 9.2 36.3 8.6 37.5 8.6C38.7 8.6 39.5 9.3 39.5 10.2C39.5 10.9 39.1 11.4 38.4 11.6V11.7C39.2 11.8 39.7 12.3 39.7 13.1C39.7 14.1 38.7 14.9 37.5 14.9C36.2 14.9 35.3 14.2 35.3 13.1H36.2C36.3 13.7 36.8 14 37.6 14C38.4 14 38.9 13.6 38.9 13C38.9 12.4 38.4 12 37.6 12H36.8V11.3H36.7Z" fill="white"/>
<path d="M40.8 13.4C40.8 12.6 41.4 12.1 42.5 12.1L43.7 12V11.6C43.7 11.1 43.4 10.9 42.8 10.9C42.3 10.9 42 11.1 41.9 11.4H41C41.1 10.6 41.8 10.1 42.8 10.1C43.9 10.1 44.6 10.7 44.6 11.6V14.7H43.7V14.1H43.6C43.3 14.6 42.8 14.8 42.2 14.8C41.5 14.8 40.8 14.2 40.8 13.4ZM43.7 13V12.6L42.6 12.7C42 12.7 41.7 13 41.7 13.3C41.7 13.7 42.1 13.9 42.5 13.9C43.2 14 43.7 13.6 43.7 13Z" fill="white"/>
<path d="M47 10.9V14.7H46.1V10.2H49.1V10.9H47Z" fill="white"/>
<path d="M54.4 12.4C54.4 13.8 53.7 14.7 52.5 14.7C51.9 14.7 51.3 14.4 51.1 13.9H51V16.1H50.1V10.1H51V10.8H51.1C51.4 10.3 51.9 10 52.5 10C53.7 10.1 54.4 11 54.4 12.4ZM53.5 12.4C53.5 11.4 53 10.9 52.3 10.9C51.6 10.9 51.1 11.5 51.1 12.4C51.1 13.3 51.6 13.9 52.3 13.9C53.1 14 53.5 13.4 53.5 12.4Z" fill="white"/>
<path d="M55.6 16.3V15.5C55.7 15.5 55.8 15.5 55.9 15.5C56.3 15.5 56.6 15.3 56.7 14.9L56.8 14.7L55.2 10.2H56.2L57.3 13.8H57.4L58.5 10.2H59.4L57.7 14.9C57.3 16 56.9 16.3 56 16.3C55.9 16.3 55.7 16.3 55.6 16.3Z" fill="white"/>
<path d="M60.1 13.4H61C61.1 13.8 61.5 14 62 14C62.6 14 63 13.7 63 13.3C63 12.9 62.7 12.7 62 12.7H61.3V12H62C62.5 12 62.8 11.8 62.8 11.4C62.8 11.1 62.5 10.8 62 10.8C61.5 10.8 61.1 11 61.1 11.4H60.2C60.3 10.6 61 10.1 62 10.1C63.1 10.1 63.7 10.6 63.7 11.3C63.7 11.8 63.4 12.1 63 12.2V12.3C63.6 12.4 63.9 12.8 63.9 13.3C63.9 14.2 63.2 14.7 62.1 14.7C61 14.8 60.2 14.3 60.1 13.4Z" fill="white"/>
<path d="M65.1 14.7V10.2H66V13.3L68.1 10.2H69V14.7H68.1V11.6H68L65.9 14.7H65.1Z" fill="white"/>
<path d="M73.8 10.9H72.4V14.7H71.5V10.9H70.1V10.2H73.8V10.9Z" fill="white"/>
<path d="M78.6 13.5C78.4 14.3 77.7 14.8 76.6 14.8C75.3 14.8 74.5 13.9 74.5 12.5C74.5 11.1 75.3 10.1 76.6 10.1C77.9 10.1 78.6 11 78.6 12.4V12.7H75.4C75.4 13.5 75.9 14 76.6 14C77.1 14 77.5 13.8 77.7 13.5H78.6ZM75.5 12H77.8C77.8 11.3 77.3 10.8 76.7 10.8C76 10.9 75.5 11.3 75.5 12Z" fill="white"/>
<path d="M82.4 10.2H84.4C85.3 10.2 85.8 10.6 85.8 11.3C85.8 11.8 85.5 12.2 85 12.3V12.4C85.6 12.5 86 12.9 86 13.4C86 14.2 85.4 14.7 84.4 14.7H82.3V10.2H82.4ZM83.3 10.9V12H84.2C84.7 12 85 11.8 85 11.4C85 11 84.8 10.8 84.3 10.8H83.3V10.9ZM83.3 12.7V14H84.4C84.9 14 85.2 13.8 85.2 13.3C85.2 12.8 84.9 12.6 84.3 12.6H83.3V12.7Z" fill="white"/>
</svg>
