<svg width="47" height="102" viewBox="0 0 47 102" fill="none" xmlns="http://www.w3.org/2000/svg">
<path d="M38.1807 33.4136V68.586H39.9445C43.8471 68.586 47 65.4425 47 61.5515V42.2067C47 37.3485 43.0533 33.4136 38.1807 33.4136Z" fill="#D47DDE"/>
<path d="M9.56348 33.4136V68.586H7.79961C3.89706 68.586 0.744154 65.4425 0.744154 61.5515V42.2067C0.744154 37.3485 4.6908 33.4136 9.56348 33.4136Z" fill="#D47DDE"/>
<path d="M45.2358 6.15517C45.2358 9.5625 42.4798 12.3103 39.0623 12.3103C35.6448 12.3103 32.8888 9.5625 32.8888 6.15517C32.8888 2.74785 35.6448 0 39.0623 0C42.4798 0 45.2358 2.74785 45.2358 6.15517Z" fill="#7E2E87"/>
<path d="M11.7224 10.5518V21.1035C11.7224 27.8962 17.2565 33.4138 24.0695 33.4138C30.8824 33.4138 36.4165 27.8962 36.4165 21.1035V10.5518H11.7224Z" fill="#D47DDE"/>
<path d="M20.5415 15.8276H17.0138V19.3449H20.5415V15.8276Z" fill="#7E2E87"/>
<path d="M31.125 15.8276H27.5973V19.3449H31.125V15.8276Z" fill="#7E2E87"/>
<path d="M24.0694 28.1382C21.137 28.1382 18.7778 25.786 18.7778 22.8623H22.3056C22.3056 23.8295 23.0993 24.6209 24.0694 24.6209C25.0395 24.6209 25.8333 23.8295 25.8333 22.8623H29.361C29.361 25.786 27.0018 28.1382 24.0694 28.1382Z" fill="#AE4EB9"/>
<path d="M38.1805 58.0347L41.7082 77.3795H6.43091L9.95864 58.0347H38.1805Z" fill="#7E2E87"/>
<path d="M9.95897 40.4481H1.13965C1.13965 36.5571 4.29256 33.4136 8.19511 33.4136H39.9447C43.8472 33.4136 47.0001 36.5571 47.0001 40.4481H38.1808V58.0343H9.95897V40.4481Z" fill="#7E2E87"/>
<path d="M34.6527 77.3794H13.4863L15.2502 94.9656H32.8889L34.6527 77.3794Z" fill="#D47DDE"/>
<path d="M25.8336 77.3794H22.3059V94.9656H25.8336V77.3794Z" fill="#AE4EB9"/>
<path d="M11.7227 94.9653H24.0697V102H11.7227C9.78242 102 8.19495 100.417 8.19495 98.4826C8.19495 96.5481 9.78242 94.9653 11.7227 94.9653Z" fill="#AE4EB9"/>
<path d="M36.417 102H24.0699V94.9653H36.417C38.3572 94.9653 39.9447 96.5481 39.9447 98.4826C39.9447 100.417 38.3572 102 36.417 102Z" fill="#AE4EB9"/>
<path d="M22.3058 0H25.8336C31.6764 0 36.4168 4.72629 36.4168 10.5517H11.7227C11.7227 4.72629 16.463 0 22.3058 0Z" fill="#AE4EB9"/>
<path d="M25.8336 0H22.3059C21.7106 0 21.1152 0.0659483 20.542 0.153879C25.6351 1.01121 29.3613 5.40776 29.3613 10.5517H36.4168C36.4168 4.72629 31.6764 0 25.8336 0Z" fill="#7E2E87"/>
<path d="M9.95898 58.0347V63.3105C9.95898 71.0704 16.2868 77.3795 24.0699 77.3795C31.8529 77.3795 38.1808 71.0704 38.1808 63.3105V58.0347H9.95898Z" fill="#AE4EB9"/>
<path d="M17.0137 33.4136L24.0691 43.9653L31.1246 33.4136H17.0137Z" fill="#D47DDE"/>
<path d="M15.2504 33.4136L17.0142 45.7239L24.0697 43.9653L17.0142 33.4136H15.2504Z" fill="#F0F0ED"/>
<path d="M31.1248 33.4136L24.0693 43.9653L31.1248 45.7239L34.6525 33.4136H31.1248Z" fill="#F0F0ED"/>
<path d="M25.8336 94.9653H22.3059V102H25.8336V94.9653Z" fill="#7E2E87"/>
<path d="M14.7871 73.8842C18.9542 77.5334 24.8632 78.3907 29.9123 76.1265C34.9613 73.8403 38.2024 68.8282 38.1804 63.3105V58.0347H37.0559C31.0588 66.3002 22.2174 71.1364 14.7871 73.8842Z" fill="#D47DDE"/>
</svg>
