<svg width="96" height="76" viewBox="0 0 96 76" fill="none" xmlns="http://www.w3.org/2000/svg">
<g clip-path="url(#clip0)">
<path d="M93.8813 58.186V55.0545C93.8813 54.5107 93.4313 54.0607 92.8875 54.0607H80.3062C79.7625 54.0607 79.3125 54.5107 79.3125 55.0545V58.186H93.8813Z" fill="#AE4EB9"/>
<path d="M77.175 70.2621V75.0062C77.175 75.55 77.625 76 78.1688 76H79.9688C80.5125 76 80.9625 75.55 80.9625 75.0062V70.2621H77.175Z" fill="#AE4EB9"/>
<path d="M92.2126 75.0062C92.2126 75.55 92.6626 76 93.2063 76H95.0063C95.5501 76 96.0001 75.55 96.0001 75.0062V70.2621H92.2126V75.0062Z" fill="#AE4EB9"/>
<path d="M96 66.0054H77.175V70.862H96V66.0054Z" fill="#AE4EB9"/>
<path d="M94.9875 57.5859H78.1875C77.625 57.5859 77.175 58.036 77.175 58.5985V66.6617H96V58.5985C96 58.036 95.55 57.5859 94.9875 57.5859Z" fill="#7E2E87"/>
<path d="M88.5187 64.2239H84.675C83.8687 64.2239 83.2312 63.5676 83.2312 62.78C83.2312 61.9737 83.8875 61.3362 84.675 61.3362H88.5187C89.325 61.3362 89.9624 61.9925 89.9624 62.78C89.9624 63.5864 89.3062 64.2239 88.5187 64.2239Z" fill="#D47DDE"/>
<path d="M9.26248 72.0809V31.5214C9.26248 30.7525 8.62498 30.115 7.85623 30.115C7.08748 30.115 6.44998 30.7525 6.44998 31.5214V72.0809H9.26248Z" fill="#7E2E87"/>
<path d="M14.4377 71.462H2.43768C1.91268 71.462 1.46268 71.8933 1.46268 72.4184V75.0436C1.46268 75.5686 1.89393 75.9999 2.43768 75.9999H14.4377V71.462Z" fill="#7E2E87"/>
<path d="M15.6937 33.1527C15.6937 33.6778 15.2625 34.1091 14.7188 34.1091H0.975C0.45 34.1091 0 33.6778 0 33.1527V15.6013C0 15.0763 0.43125 14.6262 0.975 14.6262H14.7375C15.2625 14.6262 15.7125 15.0575 15.7125 15.6013L15.6937 33.1527Z" fill="#D47DDE"/>
<path d="M4.14375 33.1527V15.6013C4.14375 15.0763 4.575 14.6262 5.11875 14.6262H0.975C0.45 14.6262 0 15.0575 0 15.6013V33.134C0 33.659 0.43125 34.0903 0.975 34.0903H5.11875C4.59375 34.1091 4.14375 33.6778 4.14375 33.1527Z" fill="#7E2E87"/>
<path d="M68.4375 40.3346H21.9938C20.925 40.3346 20.0625 41.1972 20.0625 42.266V61.8051H70.3687V42.266C70.3687 41.2159 69.4875 40.3346 68.4375 40.3346Z" fill="#7E2E87"/>
<path d="M46.6125 40.3346H43.8V61.8051H46.6125V40.3346Z" fill="#AE4EB9"/>
<path d="M38.3437 60.8487C38.3437 61.3738 37.9125 61.8238 37.3875 61.8238H28.6875C28.1625 61.8238 27.7312 61.3925 27.7312 60.8487V52.1668C27.7312 51.6417 28.1625 51.2104 28.6875 51.2104H37.3687C37.8937 51.2104 38.325 51.6417 38.325 52.1668V60.8487H38.3437Z" fill="#D47DDE"/>
<path d="M63.4875 60.8487C63.4875 61.3738 63.0563 61.8238 62.5313 61.8238H53.85C53.325 61.8238 52.875 61.3925 52.875 60.8487V52.1668C52.875 51.6417 53.3063 51.2104 53.85 51.2104H62.5313C63.0563 51.2104 63.4875 51.6417 63.4875 52.1668V60.8487Z" fill="#D47DDE"/>
<path d="M70.3687 61.1113H20.0625V71.0496H70.3687V61.1113Z" fill="#AE4EB9"/>
<path d="M19.8752 53.8356H15.1502C14.0627 53.8356 13.1814 54.7169 13.1814 55.8045V75.0061C13.1814 75.5499 13.6314 75.9811 14.1564 75.9811H20.8314C21.3752 75.9811 21.8064 75.5311 21.8064 75.0061V55.8045C21.8439 54.7169 20.9439 53.8356 19.8752 53.8356Z" fill="#D47DDE"/>
<path d="M17.3439 75.0061V55.8045C17.3439 54.7169 18.2252 53.8356 19.3127 53.8356H15.1502C14.0627 53.8356 13.1814 54.7169 13.1814 55.8045V75.0061C13.1814 75.5499 13.6314 75.9811 14.1564 75.9811H18.3002C17.7752 75.9999 17.3439 75.5499 17.3439 75.0061Z" fill="#7E2E87"/>
<path d="M75.2812 53.8356H70.575C69.4875 53.8356 68.6062 54.7169 68.6062 55.8045V75.0061C68.6062 75.5499 69.0562 75.9811 69.5812 75.9811H76.2562C76.8 75.9811 77.2312 75.5311 77.2312 75.0061V55.8045C77.25 54.7169 76.35 53.8356 75.2812 53.8356Z" fill="#D47DDE"/>
<path d="M71.7564 75.0061V55.8045C71.7564 54.7169 72.6377 53.8356 73.7252 53.8356H70.5564C69.4689 53.8356 68.5876 54.7169 68.5876 55.8045V75.0061C68.5876 75.5499 69.0376 75.9811 69.5627 75.9811H72.7502C72.2064 75.9999 71.7564 75.5499 71.7564 75.0061Z" fill="#7E2E87"/>
<path d="M66.9187 4.44409H45.2156H23.5125C22.95 4.44409 22.4812 4.91288 22.4812 5.47543V29.4587C22.4812 30.0212 22.95 30.49 23.5125 30.49H66.9187C67.4812 30.49 67.95 30.0212 67.95 29.4587V5.47543C67.95 4.91288 67.4812 4.44409 66.9187 4.44409Z" fill="#7E2E87"/>
<path d="M27.1502 26.3834C26.8502 26.3834 26.5877 26.1209 26.5877 25.8208V9.11321C26.5877 8.79443 26.8502 8.55066 27.1502 8.55066H63.3002C63.6002 8.55066 63.8627 8.79443 63.8627 9.11321V25.8208C63.8627 26.1209 63.6002 26.3834 63.3002 26.3834H27.1502Z" fill="#D47DDE"/>
<path d="M77.7188 40.3158C77.4938 40.3158 77.2875 40.1658 77.2313 39.9408C76.425 37.3156 75.8813 36.7718 73.2938 35.9467C73.0875 35.8717 72.9375 35.6842 72.9375 35.4404C72.9375 35.2154 73.0875 35.0092 73.2938 34.9529C75.8813 34.1466 76.425 33.584 77.2313 30.9588C77.3063 30.7338 77.4938 30.6025 77.7188 30.6025C77.9438 30.6025 78.15 30.7526 78.2063 30.9588C79.0125 33.584 79.5563 34.1278 82.1438 34.9529C82.35 35.0279 82.5 35.2154 82.5 35.4404C82.5 35.6655 82.35 35.8717 82.1438 35.9467C79.5563 36.753 79.0125 37.3156 78.2063 39.9408C78.1313 40.1658 77.9438 40.3158 77.7188 40.3158Z" fill="#D47DDE"/>
<path d="M84.7875 19.6516C84.5437 19.6516 84.3187 19.4828 84.2437 19.239C83.3437 16.3325 82.7437 15.7137 79.875 14.8137C79.6312 14.7387 79.4812 14.5136 79.4812 14.2699C79.4812 14.0261 79.65 13.8011 79.875 13.7261C82.7437 12.826 83.3437 12.2072 84.2437 9.30072C84.3187 9.05695 84.5437 8.88818 84.7875 8.88818C85.0312 8.88818 85.2562 9.05695 85.3312 9.30072C86.2312 12.2072 86.8312 12.826 89.7 13.7261C89.9437 13.8011 90.0937 14.0261 90.0937 14.2699C90.0937 14.5136 89.925 14.7387 89.7 14.8137C86.8312 15.7137 86.2312 16.3325 85.3312 19.239C85.2562 19.4828 85.05 19.6516 84.7875 19.6516Z" fill="#D47DDE"/>
<path d="M13.425 8.02566C13.2375 8.02566 13.0687 7.8944 13.0125 7.72564C12.3375 5.55046 11.8875 5.10042 9.74998 4.42536C9.58123 4.36911 9.44998 4.20035 9.44998 4.01283C9.44998 3.82531 9.56248 3.65655 9.74998 3.6003C11.8875 2.92524 12.3562 2.45645 13.0125 0.300025C13.0687 0.112509 13.2375 0 13.425 0C13.6125 0 13.7812 0.131261 13.8375 0.300025C14.5125 2.4752 14.9625 2.92524 17.1 3.6003C17.2687 3.65655 17.4 3.82531 17.4 4.01283C17.4 4.20035 17.2875 4.36911 17.1 4.42536C14.9625 5.10042 14.4937 5.56921 13.8375 7.72564C13.7812 7.91315 13.6125 8.02566 13.425 8.02566Z" fill="#D47DDE"/>
<path d="M56.5498 17.0827L50.4748 26.3834H63.2998L57.2248 17.0827C57.0186 16.8014 56.7186 16.8014 56.5498 17.0827Z" fill="#AE4EB9"/>
<path d="M44.8123 12.526L35.7561 26.3834H54.5436L45.4873 12.526C45.2998 12.2447 44.9998 12.2447 44.8123 12.526Z" fill="#7E2E87"/>
<path d="M33.3564 16.8764L27.1502 26.3834H40.2377L34.0314 16.8764C33.8439 16.5951 33.5439 16.5951 33.3564 16.8764Z" fill="#AE4EB9"/>
<path d="M93.8813 53.0669C93.8813 53.6107 93.4313 54.0607 92.8875 54.0607H80.3062C79.7625 54.0607 79.3125 53.6107 79.3125 53.0669V50.8167C79.3125 50.2729 79.7625 49.8229 80.3062 49.8229H92.8875C93.4313 49.8229 93.8813 50.2729 93.8813 50.8167V53.0669Z" fill="#7E2E87"/>
</g>
<defs>
<clipPath id="clip0">
<rect width="96" height="76" fill="white"/>
</clipPath>
</defs>
</svg>
