<svg width="80" height="80" viewBox="0 0 80 80" fill="none" xmlns="http://www.w3.org/2000/svg">
<path d="M40 80C62.0914 80 80 62.0914 80 40C80 17.9086 62.0914 0 40 0C17.9086 0 0 17.9086 0 40C0 62.0914 17.9086 80 40 80Z" fill="#AE4EB9"/>
<path d="M39.9997 68.8438C59.0103 68.8438 74.4215 53.4326 74.4215 34.4219C74.4215 15.4112 59.0103 0 39.9997 0C20.989 0 5.57779 15.4112 5.57779 34.4219C5.57779 53.4326 20.989 68.8438 39.9997 68.8438Z" fill="#CA73D3"/>
<path d="M39.5938 41.7813C39.3594 41.7813 39.1251 41.6719 38.9532 41.4844C38.672 41.1407 38.7188 40.6251 39.0782 40.3438L53.7188 28.5C54.0626 28.2188 54.5782 28.2657 54.8594 28.625C55.1407 28.9688 55.0938 29.4844 54.7344 29.7657L40.0938 41.6094C39.9532 41.7188 39.7657 41.7813 39.5938 41.7813Z" fill="#7E2E87"/>
<path d="M42.1722 41.2032L41.6566 25.7345C41.6253 25.0001 40.5784 24.9063 40.4222 25.6251L37.0159 40.7188" fill="#7E2E87"/>
<path d="M52.2815 65.922C47.1877 68.4063 41.3284 69.4063 35.3752 68.5157C17.9221 65.8751 6.84397 48.0782 12.2033 31.2501C16.719 17.0313 31.5315 8.48447 46.2971 11.9688C60.8909 15.422 70.2346 29.4063 68.2034 43.9532C68.0627 44.9376 67.1096 45.6095 66.1408 45.3751C65.344 45.1876 64.6409 45.9376 64.8752 46.7188L67.7659 56.3595C68.0627 57.3751 69.3596 57.672 70.0784 56.9063L76.9846 49.5782C77.5471 48.9845 77.2502 48.0001 76.4533 47.8126L76.2502 47.7657C75.3909 47.5626 74.8283 46.7188 74.969 45.8438C78.4533 24.922 62.8752 4.67197 40.0002 4.1876C26.1252 3.89072 13.3127 11.8438 7.40647 24.4063C-2.65603 45.8282 9.70335 69.7032 31.4065 74.8438C39.7815 76.8282 48.1721 75.6876 55.344 72.1876C57.0627 71.3438 57.6877 69.2345 56.6877 67.6095L56.3909 67.1407C55.5315 65.7501 53.7502 65.2032 52.2815 65.922Z" fill="#7E2E87"/>
<path d="M39.5003 45.3906C42.0892 45.3906 44.1878 43.292 44.1878 40.7031C44.1878 38.1143 42.0892 36.0156 39.5003 36.0156C36.9115 36.0156 34.8128 38.1143 34.8128 40.7031C34.8128 43.292 36.9115 45.3906 39.5003 45.3906Z" fill="#7E2E87"/>
<path d="M39.5 64.5C38.6407 64.5 37.9532 63.8125 37.9532 62.9531V58.3437C37.9532 57.4844 38.6407 56.7969 39.5 56.7969C40.3594 56.7969 41.0469 57.4844 41.0469 58.3437V62.9531C41.0469 63.7969 40.3594 64.5 39.5 64.5Z" fill="#7E2E87"/>
<path d="M39.5 23.2031C38.6407 23.2031 37.9532 22.5156 37.9532 21.6563V17.0469C37.9532 16.1875 38.6407 15.5 39.5 15.5C40.3594 15.5 41.0469 16.1875 41.0469 17.0469V21.6563C41.0469 22.5156 40.3594 23.2031 39.5 23.2031Z" fill="#7E2E87"/>
<path d="M50.9691 61.422C50.4379 61.422 49.9066 61.1407 49.6254 60.6407L49.0629 59.6876C48.641 58.9532 48.891 58.0001 49.6254 57.5626C50.3754 57.1407 51.3129 57.3907 51.7504 58.1251L52.3129 59.0938C52.7348 59.8282 52.4848 60.7813 51.7504 61.2188C51.5004 61.3595 51.2348 61.422 50.9691 61.422Z" fill="#7E2E87"/>
<path d="M28.5782 22.6407C28.0469 22.6407 27.5157 22.3594 27.2344 21.8594L26.6719 20.8907C26.25 20.1563 26.5 19.2032 27.2344 18.7657C27.9844 18.3438 28.9219 18.5938 29.3594 19.3282L29.9219 20.2969C30.3438 21.0313 30.0938 21.9844 29.3594 22.4219C29.1094 22.5782 28.8438 22.6407 28.5782 22.6407Z" fill="#7E2E87"/>
<path d="M59.3595 53.0155C59.0939 53.0155 58.8283 52.953 58.5783 52.8124L57.6095 52.2499C56.8751 51.828 56.6095 50.8749 57.047 50.1249C57.4689 49.3905 58.422 49.1249 59.172 49.5624L60.1408 50.1249C60.8752 50.5468 61.1408 51.4999 60.7033 52.2499C60.422 52.7499 59.9064 53.0155 59.3595 53.0155Z" fill="#7E2E87"/>
<path d="M20.5939 30.6404C20.3283 30.6404 20.0627 30.5779 19.8127 30.4373L18.8439 29.8748C18.1095 29.4529 17.8439 28.4998 18.2814 27.7498C18.7033 27.0154 19.6564 26.7498 20.4064 27.1873L21.3752 27.7498C22.1095 28.1717 22.3752 29.1248 21.9377 29.8748C21.6408 30.3592 21.1252 30.6404 20.5939 30.6404Z" fill="#7E2E87"/>
<path d="M62.4372 41.547H57.8278C56.9684 41.547 56.2809 40.8595 56.2809 40.0001C56.2809 39.1407 56.9684 38.4532 57.8278 38.4532H62.4372C63.2966 38.4532 63.9841 39.1407 63.9841 40.0001C63.9841 40.8595 63.2966 41.547 62.4372 41.547Z" fill="#7E2E87"/>
<path d="M21.1562 41.547H16.5469C15.6875 41.547 15 40.8595 15 40.0001C15 39.1407 15.6875 38.4532 16.5469 38.4532H21.1562C22.0156 38.4532 22.7031 39.1407 22.7031 40.0001C22.7031 40.8595 22.0156 41.547 21.1562 41.547Z" fill="#7E2E87"/>
<path d="M58.4063 30.6407C57.875 30.6407 57.3438 30.3594 57.0625 29.8594C56.6407 29.1251 56.8907 28.1719 57.625 27.7344L58.5938 27.1719C59.3282 26.7501 60.2813 27.0001 60.7188 27.7344C61.1407 28.4688 60.8907 29.4219 60.1563 29.8594L59.1875 30.4219C58.9375 30.5626 58.6719 30.6407 58.4063 30.6407Z" fill="#7E2E87"/>
<path d="M19.6254 53.0157C19.0941 53.0157 18.5629 52.7345 18.2816 52.2345C17.8597 51.5001 18.1097 50.5469 18.8441 50.1094L19.8129 49.5469C20.5629 49.1251 21.5004 49.3751 21.9379 50.1094C22.3597 50.8438 22.1097 51.797 21.3754 52.2345L20.4066 52.797C20.1566 52.9532 19.891 53.0157 19.6254 53.0157Z" fill="#7E2E87"/>
<path d="M50.4064 22.6406C50.1408 22.6406 49.8752 22.5781 49.6252 22.4374C48.8908 22.0156 48.6252 21.0624 49.0627 20.3124L49.6252 19.3437C50.047 18.6093 51.0002 18.3437 51.7502 18.7812C52.4845 19.203 52.7501 20.1562 52.3126 20.9062L51.7502 21.8749C51.4689 22.3593 50.9377 22.6406 50.4064 22.6406Z" fill="#7E2E87"/>
<path d="M28.0157 61.4218C27.7501 61.4218 27.4845 61.3593 27.2345 61.2187C26.5001 60.7968 26.2345 59.8437 26.672 59.0937L27.2345 58.1249C27.6564 57.3905 28.6095 57.1249 29.3595 57.5624C30.0938 57.9843 30.3595 58.9374 29.922 59.6874L29.3595 60.6562C29.0782 61.1405 28.5626 61.4218 28.0157 61.4218Z" fill="#7E2E87"/>
</svg>
