<svg width="80" height="77" viewBox="0 0 80 77" fill="none" xmlns="http://www.w3.org/2000/svg">
<path d="M61.5 15.0165H18.5C16.5156 15.0165 14.6094 15.7834 13.2031 17.1639L2.1875 27.9776C0.78125 29.3581 0 31.2294 0 33.1774V58.747C0 60.695 0.78125 62.5663 2.1875 63.9468L13.2031 74.7605C14.6094 76.141 16.5156 76.9079 18.5 76.9079H61.5C63.4844 76.9079 65.3906 76.141 66.7969 74.7605L77.8125 63.9468C79.2188 62.5663 80 60.695 80 58.747V33.1774C80 31.2294 79.2188 29.3581 77.8125 27.9776L66.7969 17.1639C65.3906 15.7834 63.4844 15.0165 61.5 15.0165Z" fill="#7E2E87"/>
<path d="M25.3438 64.361C25.3438 57.842 25.3594 46.154 25.3594 37.687C25.3594 32.4105 28.3438 27.5482 33.1406 25.1707C38.9844 22.2717 44.7188 17.6701 45.9219 15.0319H18.5C16.5156 15.0319 14.6094 15.7988 13.2031 17.1793L2.1875 27.9777C0.78125 29.3582 0 31.2295 0 33.1775V58.747C0 60.695 0.78125 62.5663 2.1875 63.9468L13.2031 74.7606C14.6094 76.141 16.5156 76.908 18.5 76.908H38.2344L29.2656 72.2604C26.7969 70.3584 25.3438 67.444 25.3438 64.361Z" fill="#AE4EB9"/>
<path d="M47.9375 39.1749C47.9375 33.4383 43.1875 28.76 37.3281 28.76H34.7344C33.25 28.76 32.0469 29.9411 32.0469 31.3983V60.4803C32.0469 61.9375 33.25 63.1186 34.7344 63.1186C36.2187 63.1186 37.4219 61.9375 37.4219 60.4803V49.5592C43.25 49.5285 47.9375 44.8809 47.9375 39.1749ZM37.4375 44.2981V34.0672C40.2656 34.1132 42.5469 36.3987 42.5469 39.1903C42.5625 41.9666 40.2656 44.252 37.4375 44.2981Z" fill="#D47DDE"/>
<path d="M14.2345 63.18C9.87513 63.318 6.21888 59.9588 6.06263 55.6947C6.01576 54.2375 7.17201 53.0104 8.65638 52.9644C10.1408 52.9184 11.3908 54.0535 11.4376 55.5106C11.4845 56.8758 12.6564 57.9495 14.0314 57.9035C15.8751 57.8421 17.2033 56.3082 16.2033 54.3449L9.01576 39.8959C7.82826 37.5184 7.95326 34.7574 9.34388 32.4873C10.7345 30.2172 13.1564 28.8214 15.8439 28.7293C17.9533 28.6526 19.9689 29.4042 21.5158 30.8154C22.6095 31.8124 22.6564 33.4843 21.6408 34.558C20.6251 35.6317 18.9689 35.6164 17.8283 34.6807C16.7814 33.8218 15.0314 33.653 13.9533 35.2176C13.4689 35.9232 13.4689 36.8128 13.8439 37.5797L21.0314 52.0288C22.2189 54.4062 22.0939 57.1672 20.7033 59.4373C19.3439 61.6921 16.922 63.0879 14.2345 63.18Z" fill="#D47DDE"/>
<path d="M64.8909 28.7753C60.0471 28.7753 56.1096 32.6406 56.1096 37.3956V60.4956C56.1096 61.9528 57.3128 63.1338 58.7971 63.1338C60.2815 63.1338 61.4846 61.9528 61.4846 60.4956V49.2524H68.2815V60.4956C68.2815 61.9528 69.4846 63.1338 70.969 63.1338C72.4534 63.1338 73.6565 61.9528 73.6565 60.4956V37.3956C73.6721 32.6406 69.7346 28.7753 64.8909 28.7753ZM61.4846 43.9605V37.3956C61.4846 35.5549 63.0159 34.0518 64.8909 34.0518C66.7659 34.0518 68.2971 35.5549 68.2971 37.3956V43.9605H61.4846Z" fill="#D47DDE"/>
<path d="M52.7344 21.0293L41.0156 5.78267C40.6875 5.35319 40.2344 5.29183 40 5.29183C39.7656 5.29183 39.3125 5.35319 38.9844 5.78267L27.2656 21.0293C26.375 22.195 24.6875 22.4251 23.5 21.5508C22.3125 20.6765 22.0782 19.0199 22.9688 17.8542L34.6875 2.60757C35.9531 0.950996 37.8906 0 40 0C42.1094 0 44.0469 0.950996 45.3125 2.59223L57.0313 17.8388C57.9219 19.0046 57.6875 20.6612 56.5 21.5355C55 22.6859 53.2656 21.7195 52.7344 21.0293Z" fill="#D47DDE"/>
</svg>
