<svg width="100" height="98" viewBox="0 0 100 98" fill="none" xmlns="http://www.w3.org/2000/svg">
<g clip-path="url(#clip0)">
<path d="M31.4062 17.236H16.3086C12.5781 17.236 9.55074 20.2614 9.55074 23.9895V42.0444C9.55074 43.6644 10.8593 44.9722 12.4804 44.9722H35.2148C36.8359 44.9722 38.1445 43.6644 38.1445 42.0444V23.9895C38.164 20.2614 35.1367 17.236 31.4062 17.236Z" fill="#7E2E87"/>
<path d="M23.8671 17.236H16.3086C12.5781 17.236 9.55074 20.2614 9.55074 23.9895V42.0444C9.55074 43.6644 10.8593 44.9722 12.4804 44.9722H23.8476L23.8671 17.236Z" fill="#AE4EB9"/>
<path d="M93.1836 43.0593H6.81637C5.19527 43.0593 3.88668 44.3671 3.88668 45.9871V87.7769C3.88668 89.397 5.19527 90.7047 6.81637 90.7047H93.2031C94.8242 90.7047 96.1328 89.397 96.1328 87.7769V45.9871C96.1132 44.3671 94.8047 43.0593 93.1836 43.0593Z" fill="#7E2E87"/>
<path d="M50 43.0593H6.81637C5.19527 43.0593 3.88668 44.3671 3.88668 45.9871V87.7769C3.88668 89.397 5.19527 90.7047 6.81637 90.7047H50V43.0593Z" fill="#AE4EB9"/>
<path d="M36.1524 75.402H27.754C26.1329 75.402 24.8243 76.7097 24.8243 78.3298C24.8243 79.9499 26.1329 81.2576 27.754 81.2576H36.1524C37.7735 81.2576 39.0821 79.9499 39.0821 78.3298C39.0821 76.7097 37.7735 75.402 36.1524 75.402Z" fill="#D47DDE"/>
<path d="M72.2462 75.402H63.8478C62.2267 75.402 60.9181 76.7097 60.9181 78.3298C60.9181 79.9499 62.2267 81.2576 63.8478 81.2576H72.2462C73.8673 81.2576 75.1759 79.9499 75.1759 78.3298C75.1759 76.7097 73.8673 75.402 72.2462 75.402Z" fill="#D47DDE"/>
<path d="M22.3633 60.5287V94.4719C22.3633 96.0919 23.6719 97.3997 25.293 97.3997C26.9141 97.3997 28.2227 96.0919 28.2227 94.4719V62.91H35.7031V94.4914C35.7031 96.1115 37.0117 97.4192 38.6328 97.4192C40.2539 97.4192 41.5625 96.1115 41.5625 94.4914V60.5287H22.3633Z" fill="#7E2E87"/>
<path d="M58.4374 60.5287V94.4719C58.4374 96.0919 59.746 97.3997 61.3671 97.3997C62.9882 97.3997 64.2968 96.0919 64.2968 94.4719V62.91H71.7773V94.4914C71.7773 96.1115 73.0859 97.4192 74.707 97.4192C76.328 97.4192 77.6366 96.1115 77.6366 94.4914V60.5287H58.4374Z" fill="#AE4EB9"/>
<path d="M40.0585 58.7915H23.8671C22.246 58.7915 20.9374 60.0993 20.9374 61.7193C20.9374 63.3394 22.246 64.6471 23.8671 64.6471H40.0585C41.6796 64.6471 42.9882 63.3394 42.9882 61.7193C42.9882 60.0993 41.6796 58.7915 40.0585 58.7915Z" fill="#D47DDE"/>
<path d="M31.9532 58.7915H23.8477C22.2266 58.7915 20.918 60.0993 20.918 61.7193C20.918 63.3394 22.2266 64.6471 23.8477 64.6471H31.9532V58.7915Z" fill="#D47DDE"/>
<path d="M76.1329 58.7915H59.9415C58.3204 58.7915 57.0118 60.0993 57.0118 61.7193C57.0118 63.3394 58.3204 64.6471 59.9415 64.6471H76.1329C77.754 64.6471 79.0626 63.3394 79.0626 61.7193C79.0626 60.0993 77.754 58.7915 76.1329 58.7915Z" fill="#D47DDE"/>
<path d="M68.047 58.7915H59.9415C58.3204 58.7915 57.0118 60.0993 57.0118 61.7193C57.0118 63.3394 58.3204 64.6471 59.9415 64.6471H68.047V58.7915Z" fill="#D47DDE"/>
<path d="M97.0703 41.4198H2.92969C1.30859 41.4198 0 42.7276 0 44.3476C0 45.9677 1.30859 47.2754 2.92969 47.2754H97.0703C98.6914 47.2754 100 45.9677 100 44.3476C100 42.7276 98.6914 41.4198 97.0703 41.4198Z" fill="#D47DDE"/>
<path d="M50 41.4198H2.92969C1.30859 41.4198 0 42.7276 0 44.3476C0 45.9677 1.30859 47.2754 2.92969 47.2754H50V41.4198Z" fill="#7E2E87"/>
<path d="M25.2734 18.368H22.4414C20.8203 18.368 19.5117 19.6758 19.5117 21.2959C19.5117 22.9159 20.8203 24.2237 22.4414 24.2237H25.2734C26.8945 24.2237 28.2031 22.9159 28.2031 21.2959C28.2031 19.6758 26.8945 18.368 25.2734 18.368Z" fill="#AE4EB9"/>
<path d="M23.8672 18.368H22.4609C20.8398 18.368 19.5312 19.6758 19.5312 21.2959C19.5312 22.9159 20.8398 24.2237 22.4609 24.2237H23.8672V18.368Z" fill="#D47DDE"/>
<path d="M23.8672 0.64502C18.6914 0.64502 14.4727 4.86108 14.4727 10.0336C14.4727 15.206 18.6914 19.4221 23.8672 19.4221C29.043 19.4221 33.2618 15.206 33.2618 10.0336C33.2422 4.86108 29.043 0.64502 23.8672 0.64502Z" fill="#D47DDE"/>
<path d="M23.8672 0.64502C18.6914 0.64502 14.4727 4.86108 14.4727 10.0336C14.4727 15.206 18.6914 19.4221 23.8672 19.4221V0.64502Z" fill="#D47DDE"/>
<path d="M30.2773 1H23.9297C22.3086 1 21 2.30776 21 3.92782C21 5.54788 22.3086 6.85564 23.9297 6.85564H30.2773C31.8984 6.85564 33.207 5.54788 33.207 3.92782C33.207 2.30776 31.8984 1 30.2773 1Z" fill="#AE4EB9"/>
<path d="M23.8671 0.64502C22.246 0.64502 20.9374 1.95278 20.9374 3.57284C20.9374 5.1929 22.246 6.50066 23.8671 6.50066V0.64502Z" fill="#7E2E87"/>
<path d="M76.5462 6.35498H72.4796V10.1831H76.5462V6.35498Z" fill="#AE4EB9"/>
<path d="M76.4636 16.2007V12.5859H72.397V16.2007C70.6542 17.0512 69.4923 18.9649 69.4923 21.3039V42.7798H79.3683V21.3039C79.562 18.9649 78.2064 17.0512 76.4636 16.2007Z" fill="#AE4EB9"/>
<path d="M70.6365 30.5752C71.1652 29.9991 71.494 29.1965 71.494 28.3102C71.494 28.1428 71.4806 27.9803 71.4584 27.8228L69.708 28.3792L69.4636 28.6943L70.6365 30.5752Z" fill="#D47DDE"/>
<path d="M69.0724 25.1733V27.4287H69.4856L71.1916 26.887C70.7829 25.9908 70.0009 25.3358 69.0724 25.1733Z" fill="#D47DDE"/>
<path d="M67.2816 31.1078C67.6815 31.3441 68.1435 31.4819 68.6322 31.4819C69.0942 31.4819 69.5296 31.3589 69.9161 31.1472L68.8277 29.3945L67.2816 31.1078Z" fill="#D47DDE"/>
<path d="M68.1888 25.1733C67.3003 25.326 66.5495 25.9268 66.1274 26.7639L67.9134 27.4287H68.1844V25.1733H68.1888Z" fill="#D47DDE"/>
<path d="M71.5705 25.2081C70.804 24.3808 69.7927 23.9229 68.7133 23.9229C67.634 23.9229 66.6181 24.3808 65.8562 25.2081C65.2893 25.8237 64.9083 26.5919 64.7542 27.4291H65.4934C65.8562 25.868 67.1623 24.7058 68.7133 24.7058C70.5455 24.7058 72.0331 26.3211 72.0331 28.3105C72.0331 30.3 70.5455 31.9153 68.7133 31.9153C68.1056 31.9153 67.5342 31.738 67.0444 31.4277L66.5183 31.999C67.1668 32.4569 67.9197 32.6982 68.7133 32.6982C69.7927 32.6982 70.8086 32.2403 71.5705 31.413C72.3324 30.5856 72.7542 29.4826 72.7542 28.3105C72.7542 27.1385 72.3324 26.0354 71.5705 25.2081Z" fill="#D47DDE"/>
<path d="M63.6655 41.819V34.0917L68.8368 28.3591V27.9355H57.0991V28.3591L62.2749 34.0917V41.819H60.369L59.9602 43.0601H65.9757L65.5669 41.819H63.6655Z" fill="#D47DDE"/>
<path d="M61.2 27.4287L58.6943 24.6514L58.1923 25.2078L60.1959 27.4287H61.2Z" fill="#D47DDE"/>
</g>
<defs>
<clipPath id="clip0">
<rect width="100" height="96.7742" fill="white" transform="translate(0 0.64502)"/>
</clipPath>
</defs>
</svg>
