<svg width="80" height="76" viewBox="0 0 80 76" fill="none" xmlns="http://www.w3.org/2000/svg">
<g clip-path="url(#clip0)">
<path d="M0 9.73193V36.1406C0 39.2113 2.46875 41.6994 5.51562 41.6994H8.9375C8.90625 41.6049 8.85938 41.5105 8.82812 41.416H71.1719C71.1406 41.5105 71.0938 41.6049 71.0625 41.6994H74.4844C77.5312 41.6994 80 39.2113 80 36.1406V9.73193H0Z" fill="#AE4EB9"/>
<path d="M74.4844 0H5.51562C2.46875 0 0 2.48811 0 5.55888V16.6766H80V5.55888C80 2.48811 77.5312 0 74.4844 0Z" fill="#7E2E87"/>
<path d="M40.0313 75.0685C39.6719 75.0685 39.3125 74.9268 39.0469 74.6591C36.9219 72.4859 35.8594 70.2183 35.8906 67.9192C35.9219 65.683 37 63.5413 39.0781 61.5414C40.625 60.0769 41.4219 58.5966 41.4375 57.1006C41.4531 55.5573 40.6562 53.9826 39.0625 52.4236C38.5156 51.8882 38.5 51.0063 39.0312 50.4551C39.5625 49.904 40.4375 49.8882 40.9844 50.4237C43.1406 52.5496 44.2187 54.8015 44.1875 57.1321C44.1562 59.4155 43.0781 61.5729 40.9531 63.5571C39.4375 65.0059 38.6562 66.4861 38.6406 67.9507C38.625 69.4624 39.4062 71.0529 41 72.6907C41.5312 73.2418 41.5312 74.1237 40.9844 74.6591C40.7344 74.9268 40.375 75.0685 40.0313 75.0685Z" fill="#D47DDE"/>
<path d="M55.1719 75.0685C54.8125 75.0685 54.4531 74.9268 54.1875 74.6591C52.0625 72.4859 51 70.2183 51.0312 67.9192C51.0625 65.683 52.1406 63.5413 54.2187 61.5414C55.7812 60.0769 56.5781 58.5809 56.5937 57.0849C56.6094 55.5573 55.8125 53.9826 54.2344 52.4236C53.6875 51.8882 53.6719 51.0063 54.2187 50.4551C54.75 49.904 55.625 49.8882 56.1719 50.4237C58.3125 52.5338 59.3906 54.7857 59.3594 57.1006C59.3281 59.384 58.2344 61.5572 56.1094 63.5571C54.5937 65.0059 53.8125 66.4861 53.7969 67.9507C53.7656 69.4624 54.5625 71.0529 56.1562 72.6907C56.6875 73.2418 56.6875 74.1237 56.1406 74.6591C55.875 74.9268 55.5156 75.0685 55.1719 75.0685Z" fill="#D47DDE"/>
<path d="M24.8283 75.0685C24.4689 75.0685 24.1095 74.9268 23.8439 74.6591C21.7189 72.4859 20.6564 70.2183 20.6877 67.9192C20.7189 65.683 21.797 63.5413 23.8752 61.5414C25.4377 60.0769 26.2345 58.5809 26.2502 57.0849C26.2658 55.5573 25.4689 53.9826 23.8908 52.4236C23.3439 51.8882 23.3283 51.0063 23.8752 50.4551C24.4064 49.904 25.2814 49.8882 25.8283 50.4237C27.9689 52.5338 29.047 54.7857 29.0158 57.1006C28.9845 59.384 27.8908 61.5572 25.7658 63.5571C24.2502 65.0059 23.4689 66.4861 23.4533 67.9507C23.422 69.4624 24.2189 71.0529 25.8127 72.6907C26.3439 73.2418 26.3439 74.1237 25.797 74.6591C25.5314 74.9268 25.172 75.0685 24.8283 75.0685Z" fill="#D47DDE"/>
<path d="M19.3125 5.55884H8.28125V11.1177H19.3125V5.55884Z" fill="#D47DDE"/>
<path d="M73.1092 9.73189H71.7186C70.9529 9.73189 70.3436 9.10199 70.3436 8.34611C70.3436 7.57448 70.9686 6.96033 71.7186 6.96033H73.0936C73.8592 6.96033 74.4686 7.59023 74.4686 8.34611C74.4842 9.10199 73.8592 9.73189 73.1092 9.73189Z" fill="#D47DDE"/>
<path d="M66.2032 9.73189H64.8282C64.0625 9.73189 63.4532 9.10199 63.4532 8.34611C63.4532 7.57448 64.0782 6.96033 64.8282 6.96033H66.2032C66.9688 6.96033 67.5782 7.59023 67.5782 8.34611C67.5938 9.10199 66.9688 9.73189 66.2032 9.73189Z" fill="#D47DDE"/>
<path d="M59.3125 9.73189H57.9375C57.1719 9.73189 56.5625 9.10199 56.5625 8.34611C56.5625 7.57448 57.1875 6.96033 57.9375 6.96033H59.3125C60.0781 6.96033 60.6875 7.59023 60.6875 8.34611C60.6875 9.10199 60.0781 9.73189 59.3125 9.73189Z" fill="#D47DDE"/>
<path d="M67.1876 44.4867H12.8126C10.9532 44.4867 9.31258 43.2269 8.82821 41.416L7.00008 34.6288C6.50008 32.5973 7.81258 30.5817 9.60946 30.5817H70.3751C72.1876 30.5817 73.4845 32.5973 72.9845 34.6288L71.172 41.416C70.6876 43.2269 69.047 44.4867 67.1876 44.4867Z" fill="#D47DDE"/>
<path d="M8.15622 38.9279H71.8437L72.5937 36.1406H7.40622L8.15622 38.9279Z" fill="#7E2E87"/>
</g>
<defs>
<clipPath id="clip0">
<rect width="80" height="75.0685" fill="white"/>
</clipPath>
</defs>
</svg>
