<svg width="15" height="26" viewBox="0 0 15 26" fill="none" xmlns="http://www.w3.org/2000/svg">
<path d="M12.7636 0H1.89091C0.827273 0 0 0.827273 0 1.89091V24.1091C0 25.0545 0.827273 26 1.89091 26H12.7636C13.8273 26 14.6545 25.1727 14.6545 24.1091V1.89091C14.6545 0.827273 13.8273 0 12.7636 0ZM4.60909 1.18182H10.0455C10.1636 1.18182 10.2818 1.41818 10.2818 1.65455C10.2818 1.89091 10.1636 2.12727 10.0455 2.12727H4.60909C4.49091 2.12727 4.37273 1.89091 4.37273 1.65455C4.37273 1.3 4.49091 1.18182 4.60909 1.18182ZM7.32727 24.1091C6.61818 24.1091 6.14545 23.5182 6.14545 22.9273C6.14545 22.2182 6.73636 21.7455 7.32727 21.7455C8.03636 21.7455 8.50909 22.3364 8.50909 22.9273C8.50909 23.5182 8.03636 24.1091 7.32727 24.1091ZM13.2364 19.9727H1.41818V3.19091H13.2364V19.9727Z" fill="#7E2E87"/>
</svg>
