<svg width="164" height="40" viewBox="0 0 164 40" fill="none" xmlns="http://www.w3.org/2000/svg">
<path d="M156.969 40H6.03726C2.6564 40 0 37.7 0 35V5C0 2.2 2.77714 0 6.03726 0H156.969C160.35 0 163.006 2.3 163.006 5V35C163.006 37.8 160.35 40 156.969 40Z" fill="black"/>
<path d="M156.969 0.8C159.746 0.8 162.04 2.7 162.04 5V35C162.04 37.3 159.746 39.2 156.969 39.2H6.03726C3.26012 39.2 0.965962 37.3 0.965962 35V5C0.965962 2.7 3.26012 0.8 6.03726 0.8H156.969ZM156.969 0H6.03726C2.77714 0 0 2.3 0 5V35C0 37.8 2.77714 40 6.03726 40H156.969C160.35 40 163.006 37.7 163.006 35V5C163.006 2.3 160.35 0 156.969 0Z" fill="#A6A6A6"/>
<path d="M82.1 21.8C79.7 21.8 77.8 23.6 77.8 26.1C77.8 28.5 79.7 30.4 82.1 30.4C84.5 30.4 86.4 28.6 86.4 26.1C86.4 23.5 84.5 21.8 82.1 21.8ZM82.1 28.6C80.8 28.6 79.7 27.5 79.7 26C79.7 24.5 80.8 23.4 82.1 23.4C83.4 23.4 84.5 24.4 84.5 26C84.5 27.5 83.4 28.6 82.1 28.6ZM72.8 21.8C70.4 21.8 68.5 23.6 68.5 26.1C68.5 28.5 70.4 30.4 72.8 30.4C75.2 30.4 77.1 28.6 77.1 26.1C77.1 23.5 75.2 21.8 72.8 21.8ZM72.8 28.6C71.5 28.6 70.4 27.5 70.4 26C70.4 24.5 71.5 23.4 72.8 23.4C74.1 23.4 75.2 24.4 75.2 26C75.2 27.5 74.1 28.6 72.8 28.6ZM61.7 23.1V24.9H66C65.9 25.9 65.5 26.7 65 27.2C64.4 27.8 63.4 28.5 61.7 28.5C59 28.5 57 26.4 57 23.7C57 21 59.1 18.9 61.7 18.9C63.1 18.9 64.2 19.5 65 20.2L66.3 18.9C65.2 17.9 63.8 17.1 61.8 17.1C58.2 17.1 55.1 20.1 55.1 23.7C55.1 27.3 58.2 30.3 61.8 30.3C63.8 30.3 65.2 29.7 66.4 28.4C67.6 27.2 68 25.5 68 24.2C68 23.8 68 23.4 67.9 23.1H61.7ZM107.1 24.5C106.7 23.5 105.7 21.8 103.5 21.8C101.3 21.8 99.5 23.5 99.5 26.1C99.5 28.5 101.3 30.4 103.7 30.4C105.6 30.4 106.8 29.2 107.2 28.5L105.8 27.5C105.3 28.2 104.7 28.7 103.7 28.7C102.7 28.7 102.1 28.3 101.6 27.4L107.3 25L107.1 24.5ZM101.3 25.9C101.3 24.3 102.6 23.4 103.5 23.4C104.2 23.4 104.9 23.8 105.1 24.3L101.3 25.9ZM96.6 30H98.5V17.5H96.6V30ZM93.6 22.7C93.1 22.2 92.3 21.7 91.3 21.7C89.2 21.7 87.2 23.6 87.2 26C87.2 28.4 89.1 30.2 91.3 30.2C92.3 30.2 93.1 29.7 93.5 29.2H93.6V29.8C93.6 31.4 92.7 32.3 91.3 32.3C90.2 32.3 89.4 31.5 89.2 30.8L87.6 31.5C88.1 32.6 89.3 34 91.4 34C93.6 34 95.4 32.7 95.4 29.6V22H93.6V22.7ZM91.4 28.6C90.1 28.6 89 27.5 89 26C89 24.5 90.1 23.4 91.4 23.4C92.7 23.4 93.7 24.5 93.7 26C93.7 27.5 92.7 28.6 91.4 28.6ZM115.8 17.5H111.3V30H113.2V25.3H115.8C117.9 25.3 119.9 23.8 119.9 21.4C119.9 19 117.9 17.5 115.8 17.5ZM115.9 23.5H113.2V19.2H115.9C117.3 19.2 118.1 20.4 118.1 21.3C118 22.4 117.2 23.5 115.9 23.5ZM127.4 21.7C126 21.7 124.6 22.3 124.1 23.6L125.8 24.3C126.2 23.6 126.8 23.4 127.5 23.4C128.5 23.4 129.4 24 129.5 25V25.1C129.2 24.9 128.4 24.6 127.6 24.6C125.8 24.6 124 25.6 124 27.4C124 29.1 125.5 30.2 127.1 30.2C128.4 30.2 129 29.6 129.5 29H129.6V30H131.4V25.2C131.2 23 129.5 21.7 127.4 21.7ZM127.2 28.6C126.6 28.6 125.7 28.3 125.7 27.5C125.7 26.5 126.8 26.2 127.7 26.2C128.5 26.2 128.9 26.4 129.4 26.6C129.2 27.8 128.2 28.6 127.2 28.6ZM137.7 22L135.6 27.4H135.5L133.3 22H131.3L134.6 29.6L132.7 33.8H134.6L139.7 22H137.7ZM120.9 30H122.8V17.5H120.9V30Z" fill="white"/>
<path d="M24.4 7.5C24.1 7.8 24 8.3 24 8.9V31C24 31.6 24.2 32.1 24.5 32.4L24.6 32.5L37 20.1V20V19.9L24.4 7.5Z" fill="url(#paint0_linear)"/>
<path d="M41 24.3L36.9 20.2V20V19.9L41 15.8L41.1 15.9L46 18.7C47.4 19.5 47.4 20.8 46 21.6L41 24.3Z" fill="url(#paint1_linear)"/>
<path d="M41.1 24.2L36.9 20L24.4 32.5C24.9 33 25.6 33 26.5 32.6L41.1 24.2Z" fill="url(#paint2_linear)"/>
<path d="M41.1 15.8L26.5 7.5C25.6 7 24.9 7.1 24.4 7.6L36.9 20L41.1 15.8Z" fill="url(#paint3_linear)"/>
<path opacity="0.2" d="M41 24.1L26.5 32.3C25.7 32.8 25 32.7 24.5 32.3L24.4 32.4L24.5 32.5C25 32.9 25.7 33 26.5 32.5L41 24.1Z" fill="black"/>
<path opacity="0.12" d="M24.4 32.3C24.1 32 24 31.5 24 30.9V31C24 31.6 24.2 32.1 24.5 32.4V32.3H24.4Z" fill="black"/>
<path opacity="0.12" d="M46 21.3L41 24.1L41.1 24.2L46 21.4C46.7 21 47 20.5 47 20C47 20.5 46.6 20.9 46 21.3Z" fill="black"/>
<path opacity="0.25" d="M26.5 7.6L46 18.7C46.6 19.1 47 19.5 47 20C47 19.5 46.7 19 46 18.6L26.5 7.5C25.1 6.7 24 7.3 24 8.9V9C24 7.5 25.1 6.8 26.5 7.6Z" fill="white"/>
<defs>
<linearGradient id="paint0_linear" x1="35.7996" y1="8.7098" x2="19.0172" y2="25.4922" gradientUnits="userSpaceOnUse">
<stop stop-color="#00A0FF"/>
<stop offset="0.00657445" stop-color="#00A1FF"/>
<stop offset="0.2601" stop-color="#00BEFF"/>
<stop offset="0.5122" stop-color="#00D2FF"/>
<stop offset="0.7604" stop-color="#00DFFF"/>
<stop offset="1" stop-color="#00E3FF"/>
</linearGradient>
<linearGradient id="paint1_linear" x1="47.8343" y1="20.0016" x2="23.6374" y2="20.0016" gradientUnits="userSpaceOnUse">
<stop stop-color="#FFE000"/>
<stop offset="0.4087" stop-color="#FFBD00"/>
<stop offset="0.7754" stop-color="#FFA500"/>
<stop offset="1" stop-color="#FF9C00"/>
</linearGradient>
<linearGradient id="paint2_linear" x1="38.8269" y1="22.2962" x2="16.0686" y2="45.0545" gradientUnits="userSpaceOnUse">
<stop stop-color="#FF3A44"/>
<stop offset="1" stop-color="#C31162"/>
</linearGradient>
<linearGradient id="paint3_linear" x1="21.2972" y1="0.176297" x2="31.4598" y2="10.3388" gradientUnits="userSpaceOnUse">
<stop stop-color="#32A071"/>
<stop offset="0.0685" stop-color="#2DA771"/>
<stop offset="0.4762" stop-color="#15CF74"/>
<stop offset="0.8009" stop-color="#06E775"/>
<stop offset="1" stop-color="#00F076"/>
</linearGradient>
</defs>
</svg>
