<svg width="31" height="31" viewBox="0 0 31 31" fill="none" xmlns="http://www.w3.org/2000/svg">
<path d="M15.499 18.0553C17.2074 18.0553 18.6003 16.7057 18.6003 15.0461C18.6003 14.391 18.3795 13.7861 18.0139 13.292C17.4507 12.534 16.5351 12.0369 15.5009 12.0369C14.4661 12.0369 13.5511 12.5334 12.9866 13.2914C12.6198 13.7855 12.4009 14.3903 12.4003 15.0455C12.3984 16.7051 13.79 18.0553 15.499 18.0553Z" fill="white" fill-opacity="0.5"/>
<path d="M22.3199 12.0248V8.89201V8.42578L21.8357 8.42729L18.5999 8.43706L18.6123 12.0368L22.3199 12.0248Z" fill="white" fill-opacity="0.5"/>
<path d="M15.5 0C6.95333 0 0 6.74969 0 15.046C0 23.3418 6.95333 30.0921 15.5 30.0921C24.046 30.0921 31 23.3418 31 15.046C31 6.74969 24.0473 0 15.5 0ZM24.3151 13.2903V20.2963C24.3151 22.1212 22.7867 23.6042 20.9081 23.6042H10.0919C8.21264 23.6042 6.68487 22.1212 6.68487 20.2963V13.2903V9.79696C6.68487 7.97272 8.21264 6.48969 10.0919 6.48969H20.9075C22.7867 6.48969 24.3151 7.97272 24.3151 9.79696V13.2903Z" fill="white" fill-opacity="0.5"/>
<path d="M20.1347 14.9515C20.1347 17.4661 18.0565 19.5135 15.5012 19.5135C12.946 19.5135 10.8684 17.4661 10.8684 14.9515C10.8684 14.3466 10.9907 13.7683 11.2091 13.2402H8.6803V20.0688C8.6803 20.9513 9.40805 21.666 10.3038 21.666H20.6969C21.5914 21.666 22.3204 20.9513 22.3204 20.0688V13.2402H19.7903C20.0105 13.7683 20.1347 14.3466 20.1347 14.9515Z" fill="white" fill-opacity="0.5"/>
</svg>
