<svg width="111" height="91" viewBox="0 0 111 91" fill="none" xmlns="http://www.w3.org/2000/svg">
  <defs>
    <filter id="filter0_d" x=".675293" y=".922363" width="110" height="90" filterUnits="userSpaceOnUse" color-interpolation-filters="sRGB">
      <feFlood flood-opacity="0" result="BackgroundImageFix"/>
      <feColorMatrix in="SourceAlpha" type="matrix" values="0 0 0 0 0 0 0 0 0 0 0 0 0 0 0 0 0 0 127 0"/>
      <feOffset/>
      <feGaussianBlur stdDeviation="10"/>
      <feColorMatrix type="matrix" values="0 0 0 0 1 0 0 0 0 0.991667 0 0 0 0 0.991667 0 0 0 1 0"/>
      <feBlend mode="normal" in2="BackgroundImageFix" result="effect1_dropShadow"/>
      <feBlend mode="normal" in="SourceGraphic" in2="effect1_dropShadow" result="shape"/>
    </filter>
  </defs>
  <g filter="url(#filter0_d)" fill-rule="evenodd" clip-rule="evenodd" fill="#FBB03B">
    <path d="M56.5633 70.423c-.1853 0-.3706-.1249-.4942-.3121L35.0058 22.4205c-.1235-.2497 0-.5618.2471-.6867.2471-.1248.5559 0 .6795.2497l20.5691 46.5044 18.4073-46.6916c.1235-.2497.4323-.437.6794-.3122.2471.1249.4324.437.3089.6867L57.0574 70.0484c-.0617.1873-.247.3122-.4941.3746z"/>
    <path d="M68.2375 40.7726c-.2471 0-.4942-.1873-.4942-.437-.0618-.3121.1236-.5618.4324-.6242l21.3722-4.3695c.3088-.0625.5559.1248.6176.4369.0618.3121-.1235.5618-.4323.6242L68.361 40.7726h-.1235zM43.53 40.8975h-.1236l-21.8045-4.1199c-.3088-.0624-.4941-.3121-.4324-.6242.0618-.3121.3089-.4994.6177-.437l21.8046 4.1823c.3088.0624.4941.3121.4323.6242 0 .1873-.247.3746-.4941.3746z"/>
    <path d="M75.5262 51.5715c-.3089 0-.6795-.1872-.8648-.4369L55.76 24.2931 37.5999 51.3218c-.3089.4994-.9883.6243-1.4825.3121-.4941-.3121-.6177-.9987-.2471-1.4981l19.025-28.2771c.1853-.3121.4941-.437.8647-.437.3089 0 .6795.1873.8648.437L76.391 49.9486c.3088.4993.247 1.1236-.2471 1.4981-.1853.0624-.4324.1248-.6177.1248z"/>
    <path d="M68.2376 41.3343l-24.7077.1248c-.556 0-1.0501-.4994-1.0501-1.0612 0-.5617.4324-1.0611 1.0501-1.0611l24.7077-.1249c.5559 0 1.05.437 1.05 1.0612 0 .5618-.4941 1.0612-1.05 1.0612z"/>
    <path d="M56.5632 70.9224c-.2471 0-.5559-.1249-.7412-.3121L20.9841 37.0272c-.1853-.2497-.3088-.4993-.3088-.8115 0-.2496.1235-.5617.3088-.749l13.7746-14.045c.1853-.1872.4324-.3121.7412-.3121l39.9029-.1872c.3089 0 .556.1248.7413.3121L90.351 35.4043c.4324.4369.4324 1.0611 0 1.4981L57.3045 70.6103c-.1854.1872-.4324.3121-.7413.3121zM23.2078 36.2157l33.3554 32.1474 31.5641-32.1474-13.0951-13.1086-39.0999.1249-12.7245 12.9837z"/>
  </g>
</svg>
