<svg width="46" height="32" viewBox="0 0 46 32" fill="none" xmlns="http://www.w3.org/2000/svg">
<path fill-rule="evenodd" clip-rule="evenodd" d="M23.0759 31.6804C22.9568 31.6804 22.8376 31.6005 22.7582 31.4806L9.21451 0.95879C9.13508 0.798989 9.21451 0.599239 9.37338 0.519339C9.53225 0.439439 9.73084 0.519339 9.81028 0.679139L23.0362 30.4419L34.8721 0.559289C34.9515 0.399489 35.1501 0.279639 35.309 0.359539C35.4678 0.439439 35.587 0.639189 35.5075 0.798989L23.3937 31.4407C23.354 31.5605 23.2348 31.6404 23.0759 31.6804Z" fill="#ff46ff"/>
<path fill-rule="evenodd" clip-rule="evenodd" d="M30.5824 12.7041C30.4236 12.7041 30.2647 12.5843 30.2647 12.4245C30.225 12.2247 30.3441 12.0649 30.5427 12.025L44.285 9.22848C44.4836 9.18853 44.6424 9.30838 44.6822 9.50813C44.7219 9.70788 44.6027 9.86768 44.4041 9.90763L30.6619 12.7041C30.6221 12.7041 30.5824 12.7041 30.5824 12.7041Z" fill="#ff46ff"/>
<path fill-rule="evenodd" clip-rule="evenodd" d="M14.6955 12.7841C14.6558 12.7841 14.6558 12.7841 14.6161 12.7841L0.595811 10.1474C0.397223 10.1074 0.27807 9.9476 0.317788 9.74785C0.357505 9.5481 0.516375 9.42825 0.714963 9.4682L14.7353 12.1449C14.9339 12.1848 15.053 12.3446 15.0133 12.5444C15.0133 12.6642 14.8544 12.7841 14.6955 12.7841Z" fill="#ff46ff"/>
<path fill-rule="evenodd" clip-rule="evenodd" d="M35.2691 19.6155C35.0705 19.6155 34.8322 19.4956 34.713 19.3358L22.5595 2.15728L10.8825 19.4557C10.6839 19.7753 10.247 19.8552 9.92927 19.6554C9.61153 19.4557 9.53209 19.0162 9.7704 18.6966L22.0034 0.599231C22.1226 0.39948 22.3211 0.31958 22.5595 0.31958C22.758 0.31958 22.9963 0.43943 23.1155 0.599231L35.8251 18.5768C36.0237 18.8964 35.984 19.2959 35.6663 19.5356C35.5471 19.5755 35.3882 19.6155 35.2691 19.6155Z" fill="#ff46ff"/>
<path fill-rule="evenodd" clip-rule="evenodd" d="M30.5825 13.0636L14.6955 13.1435C14.338 13.1435 14.0203 12.8239 14.0203 12.4644C14.0203 12.1048 14.2983 11.7852 14.6955 11.7852L30.5825 11.7053C30.9399 11.7053 31.2577 11.985 31.2577 12.3845C31.2577 12.744 30.9399 13.0636 30.5825 13.0636Z" fill="#ff46ff"/>
<path fill-rule="evenodd" clip-rule="evenodd" d="M23.0759 32C22.917 32 22.7184 31.9201 22.5993 31.8003L0.198588 10.3071C0.0794351 10.1473 0 9.98752 0 9.78777C0 9.62796 0.0794351 9.42822 0.198588 9.30836L9.0556 0.319601C9.17476 0.19975 9.33363 0.11985 9.53222 0.11985L35.1898 0C35.3884 0 35.5472 0.0799001 35.6664 0.19975L44.8014 9.26842C45.0794 9.54807 45.0794 9.94757 44.8014 10.2272L23.5525 31.8003C23.4334 31.9201 23.2745 32 23.0759 32ZM1.62842 9.78777L23.0759 30.362L43.3716 9.78777L34.9515 1.39825L9.81024 1.47815L1.62842 9.78777Z" fill="#ff46ff"/>
</svg>
