<svg width="61" height="44" fill="none" xmlns="http://www.w3.org/2000/svg">
  <path  class="marker-fill" d="M45.6049 0H16.1678c-1.0275 0-2.0156.395384-2.7594 1.10419L3.02141 11.0019c-1.64753 1.5699-1.65513 4.1961-.01671 5.7756L28.435 41.2922c1.5625 1.5063 4.0411 1.4917 5.5858-.0327l24.2106-23.8933c1.5414-1.5212 1.5922-3.9928.1147-5.5761L48.5293 1.2709C47.7728.460255 46.7137 0 45.6049 0z" fill="#FBB03B"/>
  <mask id="a" fill="#fff">
    <path fill-rule="evenodd" clip-rule="evenodd" d="M31.2973 36.8705c-.1222 0-.2444-.0822-.3259-.2055L17.0806 5.26115c-.0815-.16441 0-.36994.1629-.45215.163-.0822.3666 0 .4481.16442l13.565 30.62288L43.3958 4.85011c.0815-.16442.2851-.28773.4481-.20552.1629.08221.2851.28773.2037.45215L31.6232 36.6239c-.0407.1233-.1629.2055-.3259.2466z"/>
    <path fill-rule="evenodd" clip-rule="evenodd" d="M38.9962 17.3459c-.1629 0-.3259-.1233-.3259-.2877-.0407-.2055.0815-.37.2852-.4111L53.05 13.7698c.2037-.0411.3666.0822.4074.2877.0407.2056-.0815.37-.2852.4111l-14.0945 2.8773h-.0815zM22.7021 17.4281h-.0815L8.24097 14.7152c-.20368-.0411-.32589-.2055-.28515-.411.04073-.2055.20367-.3288.40735-.2877l14.37963 2.754c.2037.0411.3259.2055.2852.411 0 .1233-.1629.2466-.3259.2466z"/>
    <path fill-rule="evenodd" clip-rule="evenodd" d="M43.803 24.457c-.2037 0-.4481-.1234-.5703-.2878L30.7676 6.49428 18.7913 24.2925c-.2037.3289-.6518.4111-.9776.2056-.3259-.2056-.4074-.6577-.163-.9866L30.1973 4.8912c.1222-.20552.3259-.28773.5703-.28773.2037 0 .4481.12332.5703.28773l13.0354 18.497c.2037.3289.1629.7399-.163.9865-.1222.0411-.2851.0823-.4073.0823z"/>
    <path fill-rule="evenodd" clip-rule="evenodd" d="M38.9963 17.7158l-16.2943.0822c-.3666 0-.6925-.3288-.6925-.6988 0-.3699.2852-.6988.6925-.6988l16.2943-.0822c.3666 0 .6925.2878.6925.6988 0 .37-.3259.6988-.6925.6988z"/>
    <path fill-rule="evenodd" clip-rule="evenodd" d="M31.2973 37.1994c-.163 0-.3666-.0822-.4888-.2055L7.83356 14.8796c-.12221-.1644-.20368-.3288-.20368-.5343 0-.1645.08147-.37.20368-.4933l9.08404-9.24851c.1222-.12331.2852-.20552.4888-.20552l26.3152-.12331c.2037 0 .3667.08221.4889.20552l9.3692 9.33072c.2851.2877.2851.6988 0 .9865L31.7861 36.9939c-.1222.1233-.2851.2055-.4888.2055zM9.30004 14.3453L31.2973 35.5141l20.8159-21.1688-8.636-8.63198-25.7856.08221-8.39156 8.54977z"/>
  </mask>
  <path fill-rule="evenodd" clip-rule="evenodd" d="M31.2973 36.8705c-.1222 0-.2444-.0822-.3259-.2055L17.0806 5.26115c-.0815-.16441 0-.36994.1629-.45215.163-.0822.3666 0 .4481.16442l13.565 30.62288L43.3958 4.85011c.0815-.16442.2851-.28773.4481-.20552.1629.08221.2851.28773.2037.45215L31.6232 36.6239c-.0407.1233-.1629.2055-.3259.2466z" fill="#FBB03B"/>
  <path fill-rule="evenodd" clip-rule="evenodd" d="M38.9962 17.3459c-.1629 0-.3259-.1233-.3259-.2877-.0407-.2055.0815-.37.2852-.4111L53.05 13.7698c.2037-.0411.3666.0822.4074.2877.0407.2056-.0815.37-.2852.4111l-14.0945 2.8773h-.0815zM22.7021 17.4281h-.0815L8.24097 14.7152c-.20368-.0411-.32589-.2055-.28515-.411.04073-.2055.20367-.3288.40735-.2877l14.37963 2.754c.2037.0411.3259.2055.2852.411 0 .1233-.1629.2466-.3259.2466z" fill="#FBB03B"/>
  <path fill-rule="evenodd" clip-rule="evenodd" d="M43.803 24.457c-.2037 0-.4481-.1234-.5703-.2878L30.7676 6.49428 18.7913 24.2925c-.2037.3289-.6518.4111-.9776.2056-.3259-.2056-.4074-.6577-.163-.9866L30.1973 4.8912c.1222-.20552.3259-.28773.5703-.28773.2037 0 .4481.12332.5703.28773l13.0354 18.497c.2037.3289.1629.7399-.163.9865-.1222.0411-.2851.0823-.4073.0823z" fill="#FBB03B"/>
  <path fill-rule="evenodd" clip-rule="evenodd" d="M38.9963 17.7158l-16.2943.0822c-.3666 0-.6925-.3288-.6925-.6988 0-.3699.2852-.6988.6925-.6988l16.2943-.0822c.3666 0 .6925.2878.6925.6988 0 .37-.3259.6988-.6925.6988z" fill="#FBB03B"/>
  <path fill-rule="evenodd" clip-rule="evenodd" d="M31.2973 37.1994c-.163 0-.3666-.0822-.4888-.2055L7.83356 14.8796c-.12221-.1644-.20368-.3288-.20368-.5343 0-.1645.08147-.37.20368-.4933l9.08404-9.24851c.1222-.12331.2852-.20552.4888-.20552l26.3152-.12331c.2037 0 .3667.08221.4889.20552l9.3692 9.33072c.2851.2877.2851.6988 0 .9865L31.7861 36.9939c-.1222.1233-.2851.2055-.4888.2055zM9.30004 14.3453L31.2973 35.5141l20.8159-21.1688-8.636-8.63198-25.7856.08221-8.39156 8.54977z" fill="#FBB03B"/>
  <path class="marker-crystall" d="M31.2973 36.8705v1h.1242l.1204-.0304-.2446-.9696zm-.3259-.2055l-.9145.4045.0339.0767.0463.07.8343-.5512zM17.0806 5.26115l.9145-.40452-.0088-.01994-.0097-.01953-.896.44399zm.611-.28773l.9143-.40501-.0087-.01969-.0096-.01929-.896.44399zm13.565 30.62288l-.9143.405.9673 2.1837.8771-2.2215-.9301-.3672zM43.3958 4.85011l-.896-.444-.0187.03767-.0154.0391.9301.36723zm.6518.24663l-.8961-.444-.0188.03795-.0155.0394.9304.36665zM31.6232 36.6239l-.9304-.3667-.0103.0263-.0088.0267.9495.3137zm7.0471-19.5657h1V16.96l-.0191-.0962-.9809.1944zm.2852-.4111l.1978.9803.0022-.0005-.2-.9798zM53.05 13.7698l-.1978-.9802-.0022.0004.2.9798zm.1222.6988l-.1978-.9802-.0022.0004.2.9798zm-14.0945 2.8773v1h.101l.099-.0202-.2-.9798zm-16.4571.0822l-.1854.9827.0919.0173h.0935v-1zM8.24097 14.7152l-.19784.9804.01244.0023.1854-.9827zm.1222-.6987l-.19783.9802.00973.0019.1881-.9821zm14.37963 2.754l.1979-.9803-.0098-.0019-.1881.9822zm.2852.411l-.9809-.1944-.0191.0963v.0981h1zm20.2047 6.9877l-.8172.5764.0072.0101.0074.0101.8026-.5966zM30.7676 6.49428l.8172-.57633-.8365-1.18619-.8104 1.20425.8297.55827zM18.7913 24.2925l-.8296-.5582-.0106.0156-.0099.0161.8501.5265zm-1.1406-.781l.8026.5966.0138-.0186.0129-.0192-.8293-.5588zM30.1973 4.8912l.8293.5588.0158-.02343.0144-.02428-.8595-.51109zm1.1406 0l.8174-.57605-.0073-.01033-.0075-.01015-.8026.59653zm13.0354 18.497l.8501-.5265-.0156-.0253-.0171-.0242-.8174.576zm-.163.9865l.3188.9479.1546-.052.1301-.0985-.6035-.7974zm-5.214-6.6589v-1h-.0051l.0051 1zm-16.2943.0822v1h.0051l-.0051-1zm0-1.3976v1.0001l.0051-.0001-.0051-1zm16.2943-.0822v-1h-.0051l.0051 1zm-8.1878 20.6757l.7102-.704-.0083-.0083-.0085-.0082-.6934.7205zM7.83356 14.8796l-.80258.5966.04941.0664.05969.0575.69348-.7205zm0-1.0276l.71029.7039.00313-.0032-.71342-.7007zm9.08404-9.24851l-.7103-.70392-.0031.00319.7134.70073zm.4888-.20552v1.00001l.0047-.00002-.0047-.99999zm26.3152-.12331V3.27465l-.0046.00002.0046.99999zm.4889.20552l-.7103.70393.0046.00463.7057-.70856zm9.3692 9.33072l.7103-.7039-.0047-.0047-.7056.7086zm0 .9865l-.7103-.7039-.0033.0033.7136.7006zM31.7861 36.9939l.7103.7039.0033-.0033-.7136-.7006zM9.30004 14.3453l-.71368-.7005-.7074.7207.72767.7003.69341-.7205zM31.2973 35.5141l-.6934.7205.7128.686.6936-.7054-.713-.7011zm20.8159-21.1688l.713.7011.6954-.7072-.7015-.7012-.7069.7073zm-8.636-8.63198l.707-.70727L43.89 4.712l-.416.00132.0032 1zm-25.7856.08221l-.0032-1-.4178.00133-.2927.29819.7137.70048zM31.2973 35.8705c.1652 0 .2889.055.3621.102.0735.0472.1189.0996.1464.1413l-1.6687 1.1024c.1974.2989.5936.6543 1.1602.6543v-2zm.5887.39L17.9951 4.85663l-1.829.80905L30.0569 37.0695l1.8291-.809zM17.9766 4.81716c.0962.19402.0848.39125.0312.53545-.0523.14072-.1577.2704-.3138.3492l-.9009-1.78561c-.5954.30039-.9619 1.07582-.6085 1.78895l1.792-.88799zm-.2826.88465c-.1981.09993-.4013.08838-.5498.0322-.1446-.05473-.2724-.16288-.3486-.31659l1.792-.88799c-.2936-.59265-1.0697-.9789-1.7945-.61323l.9009 1.78561zm-.9167-.32338l13.565 30.62287 1.8286-.81-13.565-30.62289-1.8286.81002zM32.1867 35.9635L44.3259 5.21734l-1.8602-.73446L30.3265 35.229l1.8602.7345zM44.2918 5.2941c-.0547.11052-.1392.19664-.2521.25356-.1181.05963-.3701.12907-.6463-.01027l.9009-1.78561c-.4391-.22155-.8743-.13155-1.1555.01028-.2757.13914-.5028.36912-.639.64405l1.792.88799zm-.8984.24329c-.1128-.05692-.1973-.14304-.252-.25356-.0572-.1154-.1239-.36049.0101-.63109l1.7921.88799c.2155-.43501.1285-.86508-.0102-1.14489-.1362-.27494-.3633-.50492-.6391-.64406l-.9009 1.78561zm-.2762-.8073L30.6928 36.2572l1.8608.7333L44.9779 5.46338l-1.8607-.73329zM30.6737 36.3102c.056-.1695.1604-.2794.2407-.3384.074-.0543.1302-.0688.1383-.0709l.4892 1.9392c.3053-.077.8333-.3045 1.0308-.9025l-1.899-.6274zm8.3225-19.9643c.1607 0 .3057.0567.4196.1524.1192.1003.2545.2921.2545.5599h-2c0 .8721.7801 1.2877 1.3259 1.2877v-2zm.655.5179c.0289.1453.0058.3361-.1138.505-.1149.1624-.2695.2354-.3841.2586l-.3956-1.9605c-.3184.0642-.6359.2401-.8526.5463-.2214.3127-.2852.6885-.2157 1.0394l1.9618-.3888zm-.4957.7631L53.25 14.7496l-.4-1.9596-14.0945 2.8773.4 1.9596zm14.0923-2.8768c-.1515.0305-.3473.0052-.5177-.1177-.1624-.117-.232-.2713-.2537-.3804l1.9619-.3889c-.0624-.3146-.2339-.6333-.5388-.8531-.313-.2256-.6921-.2921-1.0473-.2204l.3956 1.9605zm-.7714-.4981c-.0288-.1454-.0057-.3362.1138-.505.115-.1624.2695-.2355.3842-.2586l.3956 1.9604c.3183-.0642.6358-.24.8526-.5463.2214-.3127.2852-.6885.2157-1.0394l-1.9619.3889zm.4958-.7632l-14.0945 2.8773.4 1.9596 14.0945-2.8773-.4-1.9596zm-13.8945 2.8571h-.0003-.0007-.0012-.0012-.0019-.0012-.0007-.0012-.0007-.0012-.0007-.0019-.0007-.0007H39.0608h-.0007-.0007-.0007-.0007-.0023-.0007-.0007-.0009-.0007-.0009-.0016-.0009-.0009-.0009-.0011-.0009-.0011-.0011-.0002-.0011-.0013-.0002-.0013-.0002-.0015-.0002-.0002H39.0354h-.0002-.0002-.0002-.0002H39.028h-.0002-.0002-.0002-.0002H39.0257h-.0002-.0002-.0011-.0002-.0009-.0002-.0007-.0002-.0007-.0002-.0007-.0007-.0005-.0002-.0005-.0005-.0005-.0002H39.017h-.0005-.0005H39.0157h-.0002H39.0152 39.0149h-.0002H39.0144 39.0141 39.0138h-.0005H39.013 39.0127 39.0124 39.0121 39.0118 39.0115h-.0004H39.0108 39.0105 39.0102h-.0001H39.0098 39.0095h-.0001H39.0091h-.0001H39.0087h-.0001H39.0083h-.0001H39.0079h-.0001H39.0075h-.0001-.0004-.0001-.0004-.0001-.0004-.0001-.0001-.0004-.0001-.0001-.0001-.0004-.0001-.0001-.0001-.0001H39.0037h-.0001-.0001-.0001-.0001-.0001-.0001-.0001-.0001-.0001-.0001-.0001-.0001-.0001-.0001-.0001-.0001-.0001-.0001-.0001-.0001-.0001-.0004-.0001-.0001-.0001-.0001H39.0005h-.0001-.0001-.0002H39h-.0001-.0002-.0001-.0002-.0002-.0001-.0001-.0001-.0001-.0001-.0001-.0002-.0001-.0002-.0001-.0001-.0001-.0001-.0001-.0001-.0001-.0002-.0002-.0001-.0001-.0002-.0001-.0001-.0001-.0001v2H39.0777v-2zm-16.3756.0822h-.0005-.0014-.0007-.0009-.0009-.0011-.0002-.0013-.0002H22.6897h-.0002-.0002-.0002-.0009-.0002-.0002-.0007-.0002-.0007-.0002-.0005-.0002-.0005-.0002-.0005-.0005-.0005-.0005-.0005H22.6818h-.0002H22.6813 22.681h-.0002H22.6805 22.6802 22.6799h-.0002H22.6794 22.6791 22.6788 22.6785 22.6782 22.6779 22.6776 22.6773 22.677 22.6767h-.0001H22.6763 22.676 22.6757h-.0004H22.675 22.6747h-.0001H22.6743h-.0004H22.6736h-.0001H22.6732h-.0001H22.6728h-.0004-.0004-.0004-.0001H22.6712h-.0001H22.6708h-.0001-.0004-.0001H22.6699h-.0001-.0004-.0001H22.669h-.0001-.0004-.0001-.0004-.0001-.0004-.0001-.0001H22.667h-.0001-.0001-.0004-.0001-.0004-.0001-.0001-.0004-.0001-.0001-.0004-.0001-.0004-.0001-.0001-.0004-.0001-.0001-.0004-.0001-.0001-.0004-.0001-.0001-.0001-.0004-.0001-.0001-.0004-.0001-.0001-.0004-.0001-.0001-.0004-.0001-.0001-.0004-.0001-.0001-.0004-.0001-.0001-.0004-.0001-.0001-.0004-.0001-.0001H22.657h-.0001-.0001-.0004-.0001-.0001H22.6559h-.0001-.0001-.0004-.0001-.0004-.0001-.0004-.0001-.0004-.0001-.0004-.0001H22.6529h-.0001-.0004-.0001H22.652h-.0001H22.6516h-.0001-.0004-.0004-.0004-.0004-.0004H22.6492h-.0001H22.6488h-.0004H22.6481h-.0001H22.6477 22.6474h-.0004H22.6467 22.6464 22.6461h-.0001H22.6457 22.6454 22.6451 22.6448 22.6445 22.6442 22.6439 22.6436 22.6433h-.0005H22.6425 22.6422h-.0005H22.6414h-.0005H22.6406h-.0005-.0005-.0005-.0005-.0002-.0005-.0005-.0002-.0007-.0007-.0002-.0009-.0002-.0002-.0011-.0002-.0002-.0002H22.6284h-.0002-.0002-.0015-.0002-.0011-.0009-.0009-.0007H22.6206v2H22.7021v-2zm.1039.0174L8.42636 13.7326l-.37079 1.9653 14.37963 2.7129.3708-1.9653zM8.43879 13.735c.11464.0231.2692.0962.38415.2586.11952.1689.1426.3597.11379.505l-1.96183-.3888c-.06955.3508-.00573.7266.21563 1.0393.2168.3063.5343.4821.85261.5464l.39565-1.9605zm.49794.7636c-.02163.1092-.09125.2634-.25363.3805-.1704.1228-.36623.1482-.51775.1176l.39565-1.9605c-.35521-.0717-.73435-.0052-1.04732.2204-.30495.2198-.47641.5385-.53878.8532l1.96183.3888zm-.76166.5l14.37963 2.754.3762-1.9643-14.37963-2.754-.3762 1.9643zM22.545 17.7507c-.1146-.0231-.2692-.0962-.3841-.2586-.1196-.1689-.1426-.3597-.1138-.505l1.9618.3888c.0696-.3508.0057-.7266-.2156-1.0393-.2168-.3063-.5343-.4821-.8526-.5464l-.3957 1.9605zm-.517-.5692c0-.3746.2239-.5743.2947-.6278.0947-.0717.2216-.1256.3794-.1256v2c.3207 0 .6106-.1155.8275-.2796.193-.1461.4984-.4691.4984-.967h-2zm21.775 6.2755c.0479 0 .0808.0069.0976.0113.0177.0047.0294.0097.0371.0136.0078.004.0186.0102.0323.0213.0132.0105.0375.0322.0653.0695l-1.6052 1.1931c.1724.2319.3968.3958.6067.5017.2097.1058.4757.1895.7662.1895v-2zm.2469.1359L31.5848 5.91795l-1.6344 1.15266L42.4155 24.7456l1.6344-1.1527zM29.9379 5.93601L17.9617 23.7343l1.6593 1.1165L31.5972 7.05255l-1.6593-1.11654zM17.9412 23.766c.0567-.0916.1421-.137.2093-.1506.0636-.0128.1335-.003.1966.0368l-1.0669 1.6917c.7508.4735 1.8379.3201 2.3613-.5248l-1.7003-1.0531zm.4059-.1138c.1934.122.1901.343.1062.4559l-1.6052-1.1931c-.5727.7706-.4131 1.8959.4321 2.4289l1.0669-1.6917zm.1329.4181L31.0266 5.45 29.368 4.33241 16.8214 22.9528l1.6586 1.1175zM31.0568 5.40229c-.04.06729-.1076.13136-.1889.17021-.0706.03374-.1143.03097-.1003.03097v-2c-.481 0-1.075.17995-1.4298.77665l1.719 1.02217zm-.2892.20118c-.0479 0-.0809-.00691-.0977-.01135-.0176-.00466-.0293-.00971-.0371-.01363-.0077-.00393-.0185-.01019-.0323-.02124-.0131-.01053-.0375-.03219-.0652-.06951l1.6052-1.19307c-.1724-.23195-.3968-.39587-.6068-.50179-.2097-.1058-.4757-.18941-.7661-.18941v2zm-.2471-.13621L43.5559 23.9643l1.6348-1.1521L32.1553 4.31515l-1.6348 1.15211zM43.5232 23.9148c-.0114-.0184-.0337-.0689-.0223-.1467.0127-.0873.061-.1567.106-.1907l1.2069 1.5947c.793-.6001.8468-1.6046.4096-2.3104l-1.7002 1.0531zm.3683-.4879c-.0318.0107-.0669.0206-.0962.0269-.014.0031-.022.0043-.024.0045-.0031.0004.0085-.0013.0317-.0013v2c.2885 0 .5762-.084.7261-.1344l-.6376-1.8957zm-4.9003-6.7111l-16.2942.0822.0101 2 16.2942-.0822-.0101-2zm-16.2892.0822c.1178 0 .1917.0502.2266.0854.035.0354.0809.1059.0809.2158h-2c0 .9137.7651 1.6988 1.6925 1.6988v-2zm.3075.3012c0 .0714-.0271.1435-.082.2012-.0607.0638-.147.1-.2255.1v-2c-1.006 0-1.6925.8241-1.6925 1.6988h2zm-.3024.3012l16.2942-.0822-.0101-2-16.2942.0823.0101 1.9999zm16.2892-.0822c-.0787 0-.1544-.0306-.2121-.0865-.0632-.0613-.0954-.1441-.0954-.2147h2c0-.9931-.8038-1.6988-1.6925-1.6988v2zm-.3075-.3012c0-.1099.0459-.1804.0809-.2158.0349-.0352.1088-.0854.2266-.0854v2c.9274 0 1.6925-.7851 1.6925-1.6988h-2zm-7.3915 19.1824c.0414 0 .0704.0049.0863.0084.0167.0037.0287.0079.0377.0116.009.0037.0203.0093.0343.0183.0135.0087.0361.0249.0631.0522l-1.4205 1.4079c.3111.314.771.5016 1.1991.5016v-2zm.2046.074L8.52704 14.1591l-1.38696 1.441L30.115 37.7143l1.3869-1.4409zM8.63615 14.2831c-.03123-.042-.03115-.0497-.02438-.0331.00386.0095.00884.0241.01264.0428.00384.0189.00547.0369.00547.0525h-2c0 .5058.21333.8782.4011 1.1309l1.60517-1.1931zm-.00627.0622c0 .0395-.00465.0669-.00779.0815-.0033.0153-.00704.0262-.01032.0342-.00328.0081-.00833.0187-.01688.0322-.00823.013-.02404.0355-.05104.0627l-1.42058-1.4078c-.31083.3136-.49339.7734-.49339 1.1972h2zm-.0829.2074L17.631 5.30423l-1.4268-1.40147-9.08406 9.24854 1.42684 1.4014zm9.08092-9.24529c-.0174.01756-.0478.04215-.0926.0619-.0466.02057-.0925.02866-.1289.02866v-2c-.4997 0-.9107.21066-1.1991.50161l1.4206 1.40783zm-.2168.09055l26.3152-.12331-.0093-1.99998-26.3153.12331.0094 1.99998zm26.3105-.1233c-.0363 0-.0823-.0081-.1288-.02866-.0448-.01975-.0752-.04434-.0926-.06191l1.4206-1.40782c-.2884-.29096-.6994-.50161-1.1992-.50161v2zm-.2168-.08592l9.3692 9.33076 1.4113-1.4172-9.3692-9.33068-1.4113 1.41712zm9.3646 9.32606c-.0296-.0298-.0759-.1032-.0759-.2106 0-.1075.0463-.1809.0759-.2107l1.4206 1.4078c.6714-.6775.6714-1.7168 0-2.3943l-1.4206 1.4078zm-.0033-.418L31.0726 36.2932l1.4271 1.4013L54.2932 15.498l-1.4271-1.4012zM31.0758 36.2899c.0174-.0175.0478-.0421.0926-.0619.0466-.0205.0925-.0286.1289-.0286v2c.4997 0 .9107-.2107 1.1991-.5016l-1.4206-1.4079zM8.60663 15.0658L30.6039 36.2346l1.3868-1.4411L9.99345 13.6247l-1.38682 1.4411zM32.0103 36.2152l20.8159-21.1688-1.426-1.4023L30.5843 34.813l1.426 1.4022zM52.8201 13.638l-8.6359-8.63195-1.4139 1.41454 8.6359 8.63191 1.4139-1.4145zM43.474 4.71332l-25.7856.08221.0064 1.99999 25.7856-.08221-.0064-1.99999zm-26.4961.38173L8.58636 13.6448l1.42734 1.4009 8.3916-8.5497-1.4274-1.40095z" fill="#000" mask="url(#a)"/>
</svg>
