<?xml version="1.0" encoding="UTF-8"?>
<svg xmlns="http://www.w3.org/2000/svg" width="19" height="16" viewBox="0 0 20000000 16400000" fill="none">
  <path d="M 16748856,2053567.5 C 15007042,484825.31 13350860,0 13350860,0 l -3340861,11365909 h -28601.1 L 6611993.7,0 c 0,0 -1656181.9,470593.83 -3398006,2053567.5 C 1357929.7,3736296.8 -241107.16,6317538.7 30152.866,10410384 244325.04,13647576 2642913.5,16399943 2642913.5,16399943 l 4640140.7,-14279 c 0,0 -3983376.3,-2110591 -4939954.8,-5433373 C 1200902.7,7030569.3 2985567.7,4306713.8 4356193.6,3008986.8 4913020,2524104.2 5726810.3,2410001.5 6026614.2,3451069.5 7054585.9,6773853 9995694.1,16285840 9995694.1,16285840 l 14304.9,48 c 0,0 2926861,-9511986.9 3969071,-12834770.4 314111,-1041068 1127910,-926956.2 1670431,-442082.8 1370625,1297736.2 3155289,4021534.5 2013083,7943304.2 -956568,3322782 -4939945,5433372 -4939945,5433372 l 4640141,14289 c 0,0 2412884,-2766597 2612761,-5989568 242716,-4092893.3 -1356378,-6674135.2 -3226685,-8356864.5 z"/>
</svg>