<svg width="27" height="27" viewBox="0 0 27 27" fill="none" xmlns="http://www.w3.org/2000/svg">
<path fill-rule="evenodd" clip-rule="evenodd" d="M3.00496 11.0969C1.55336 8.46523 1 6.34362 1 4.91061C1 3.47761 1.35208 3.06661 1.70934 2.73457C2.0666 2.40254 3.6776 1.4093 3.95209 1.22407C4.22658 1.03883 5.27421 0.678852 5.93119 1.62393C6.58818 2.56902 7.82536 4.46655 8.67832 5.7271C10.0168 7.51258 8.95046 8.29638 8.60603 8.76616C7.97224 9.63063 7.6073 9.84384 7.6073 10.9053C7.6073 11.9668 10.5739 14.9825 11.2832 15.7256C11.9871 16.463 14.9431 19.0542 15.859 19.1928C16.7814 19.3323 18.0162 18.3558 18.2787 18.1082C19.6143 17.0828 20.3682 17.8602 20.9833 18.1981C21.5985 18.536 24.378 20.268 25.2394 20.8518C26.05 21.4356 25.9994 22.3379 25.9994 22.3379C25.9994 22.3379 25.4226 24.0216 24.1247 25.31C23.8056 25.6268 23.2634 26 21.8953 26C20.5273 26 19.0657 25.7501 15.592 23.8398C12.7497 22.2766 10.0402 19.8288 8.62149 18.3958C7.15215 16.9628 4.66309 14.1031 3.00496 11.0969Z" fill="#FBB03B" stroke="#FBB03B" stroke-width="0.75"/>
</svg>
