<svg width="35" height="29" viewBox="0 0 35 29" fill="none" xmlns="http://www.w3.org/2000/svg">
<path d="M6.99397 0C9.83528 0 11.9845 1.18725 13.4415 3.56174C14.6801 5.56523 15.2993 8.01393 15.2993 10.9079C15.2993 14.618 14.3522 17.9571 12.458 20.9253C10.6367 23.8934 7.8318 26.2679 4.04339 28.0488L3.05986 26.0453C5.31834 25.0806 7.24896 23.5595 8.85175 21.4818C10.5274 19.4041 11.3652 17.2893 11.3652 15.1374C11.3652 14.247 11.2559 13.4679 11.0374 12.8C9.8717 13.7647 8.52391 14.247 6.99397 14.247C5.02692 14.247 3.35128 13.6163 1.96706 12.3548C0.655685 11.0192 0 9.27538 0 7.12349C0 5.12001 0.655685 3.45044 1.96706 2.11479C3.35128 0.704928 5.02692 0 6.99397 0Z" fill="#D47DDE"/>
<path d="M26.543 0C29.3843 0 31.5335 1.18725 32.9906 3.56174C34.2291 5.56523 34.8484 8.01393 34.8484 10.9079C34.8484 14.618 33.9013 17.9571 32.0071 20.9253C30.1857 23.8934 27.3809 26.2679 23.5925 28.0488L22.6089 26.0453C24.8674 25.0806 26.798 23.5595 28.4008 21.4818C30.0765 19.4041 30.9143 17.2893 30.9143 15.1374C30.9143 14.247 30.805 13.4679 30.5864 12.8C29.4208 13.7647 28.073 14.247 26.543 14.247C24.576 14.247 22.9004 13.6163 21.5161 12.3548C20.2048 11.0192 19.5491 9.27538 19.5491 7.12349C19.5491 5.12001 20.2048 3.45044 21.5161 2.11479C22.9004 0.704928 24.576 0 26.543 0Z" fill="#D47DDE"/>
</svg>
