<svg width="345" height="206" viewBox="0 0 345 206" fill="none" xmlns="http://www.w3.org/2000/svg">
<path d="M319.9 101.6C319.9 102.3 320.2 103.2 320.6 104.1C321 105 321.6 105.9 322.2 106.8C323.4 108.5 324.8 110.2 326.3 111.9C329.2 115.2 332.3 118.4 335.4 121.8C336.9 123.5 338.4 125.2 339.9 127C341.3 128.8 342.7 130.7 343.8 133C344.3 134.1 344.8 135.4 344.9 136.9C345 137.3 344.9 137.7 344.9 138.1C344.9 138.5 344.8 138.9 344.6 139.3C344.5 139.7 344.3 140.1 344.1 140.4C343.9 140.8 343.7 141.1 343.5 141.4C342.6 142.6 341.5 143.4 340.4 144.1L339.6 144.6L338.8 145C338.2 145.3 337.7 145.5 337.1 145.7C332.6 147.4 328.1 148.2 323.6 149C319.1 149.8 314.7 150.5 310.4 151.4C308.2 151.8 306.1 152.3 304 152.9C301.9 153.5 299.9 154.2 298.3 155.1C297.9 155.3 297.5 155.6 297.2 155.8C297 155.9 296.9 156.1 296.7 156.2C296.6 156.3 296.4 156.4 296.2 156.7L293.7 159.1L291.2 161.5C290.4 162.3 289.5 163 288.6 163.8L286 166L284.7 167.1L283.3 168.1C281.5 169.5 279.7 170.9 277.8 172.2L272.1 176C270.2 177.3 268.2 178.4 266.2 179.5C265.2 180.1 264.2 180.7 263.2 181.2L260.2 182.8C258.2 183.8 256.2 185 254.1 185.9L247.9 188.7L241.5 191.2C233 194.4 224.3 197.3 215.4 199.3C211 200.5 206.5 201.2 202 202.1C199.8 202.5 197.5 202.8 195.3 203.2L191.9 203.7C190.8 203.9 189.6 204 188.5 204.1L181.7 204.8C179.4 205 177.2 205.1 174.9 205.3C170.4 205.7 165.8 205.6 161.3 205.8C152.2 205.8 143.1 205.3 134.1 204.4C116 202.5 98.1 198.5 81 192.2C63.9 185.9 47.5 177.2 33.4 165.5C26.4 159.6 19.9 153 14.6 145.5C9.3 138 4.9 129.7 2.5 120.7L1.6 117.3L1 114L0.7 112.3L0.5 110.6L0.0999999 107.1C-0.1 102.5 -0.2 97.8 0.5 93.2C1.6 84 4.9 75.2 9.3 67.2C9.8 66.2 10.4 65.2 11 64.2L12.8 61.3L14.8 58.5C15.5 57.6 16.1 56.6 16.9 55.8C18.4 54 19.7 52.2 21.3 50.6L23.6 48.1L26 45.7C32.5 39.4 39.8 33.8 47.4 29C55.1 24.2 63.2 20.1 71.5 16.6C79.8 13.1 88.4 10.2 97.1 7.79999C114.5 3.09999 132.5 0.59999 150.5 -9.77516e-06C159.5 -0.30001 168.5 -0.10001 177.5 0.59999C186.5 1.19999 195.4 2.39999 204.3 3.99999C213.1 5.59999 221.9 7.79999 230.5 10.5C239.1 13.2 247.5 16.4 255.7 20.3C271.9 28.1 287.2 38.3 299.3 51.9C305.4 58.7 310.4 66.4 314 74.8C317.8 83.2 319.7 92.4 319.9 101.6ZM316.6 101.6L316.5 98.3V96.7C316.5 96.2 316.4 95.6 316.3 95.1L315.9 91.8C315.7 90.7 315.5 89.6 315.3 88.6C315 86.4 314.3 84.3 313.7 82.2C313.4 81.1 313 80.1 312.6 79.1C312.2 78.1 311.9 77 311.4 76C308 67.9 303.3 60.3 297.5 53.6C291.7 46.9 285.1 40.9 277.9 35.6C270.7 30.3 263 25.7 255 21.8C247 17.9 238.6 14.5 230.1 11.8C221.6 9.09999 212.9 6.89999 204.1 5.29999C195.3 3.69999 186.4 2.49999 177.5 1.89999C168.6 1.29999 159.6 1.19999 150.6 1.59999C132.7 2.39999 114.9 5.09999 97.7 9.89999C80.7 14.5 64 21.5 49.1 31.2C41.7 36.1 34.7 41.6 28.4 47.9L26.1 50.3L23.9 52.8C22.4 54.4 21.1 56.2 19.7 57.9C19 58.7 18.4 59.7 17.8 60.6L15.9 63.3L14.2 66.1C13.6 67 13 68 12.5 69C8.4 76.7 5.5 85.1 4.6 93.8C4 98.1 4.1 102.5 4.4 106.8L4.8 110L5 111.6L5.3 113.2L6 116.4L6.9 119.5C9.3 127.9 13.6 135.6 18.7 142.6C23.9 149.6 30.2 155.9 37 161.4C50.7 172.4 66.6 180.6 83.2 186.5C116.6 198.3 152.8 201.5 187.9 197.5C189 197.4 190.1 197.3 191.2 197.1L194.5 196.6C196.7 196.3 198.9 196 201.1 195.6C205.4 194.7 209.8 194.1 214.1 193C222.7 191.1 231.2 188.5 239.5 185.5L245.7 183.1L251.8 180.4C253.8 179.6 255.8 178.5 257.8 177.5L260.8 176C261.8 175.5 262.7 174.9 263.7 174.4C271.4 170.2 278.8 165.2 285.5 159.6C286.3 158.9 287.2 158.2 288 157.5L290.4 155.2L292.8 152.9L293.5 152.2C293.8 152 294.1 151.7 294.3 151.5C294.9 151.1 295.4 150.7 296 150.4C298.3 149.2 300.6 148.5 302.9 147.8C305.2 147.2 307.4 146.8 309.7 146.4C314.2 145.6 318.6 145 323 144.3C327.4 143.6 331.8 142.8 335.7 141.4C336.2 141.2 336.7 141 337.1 140.8L337.8 140.5L338.4 140.1C339.2 139.6 340 139.1 340.4 138.5C340.5 138.4 340.6 138.2 340.7 138.1C340.8 138 340.9 137.8 340.9 137.7C340.9 137.6 341 137.5 341 137.3C341 137.1 341.1 137 341 136.8C341 136.1 340.7 135.2 340.3 134.3C339.5 132.5 338.3 130.7 336.9 129C335.6 127.3 334.1 125.6 332.7 123.9C329.8 120.6 326.7 117.3 323.8 113.8C322.3 112.1 320.9 110.3 319.6 108.3C319 107.3 318.3 106.3 317.8 105.1C317.1 104.4 316.6 103.1 316.6 101.6Z" fill="white" fill-opacity="0.6"/>
</svg>
