<svg width="18" height="25" viewBox="0 0 18 25" fill="none" xmlns="http://www.w3.org/2000/svg">
<path d="M15.6055 22.9271C15.2946 23.2284 14.8905 23.4694 14.4864 23.7104C14.735 23.3188 14.7972 22.9271 14.8905 22.4752C15.2013 20.1554 13.4605 17.5041 10.414 15.9676C9.76119 15.576 8.26903 14.7926 5.84428 13.7081C3.85474 12.7741 2.33149 11.7799 1.42998 10.6953C0.466299 9.6107 0 8.28509 0 6.89922C0 4.73003 0.808251 3.10314 2.48693 1.86791C3.20192 1.416 4.01017 0.933955 4.88059 0.632679C4.4143 1.17498 4.07234 1.86791 3.91691 2.56084C3.51278 5.03131 5.44015 7.44151 9.20163 9.00815C9.5125 9.15879 9.91662 9.30942 10.3207 9.55044C13.2118 10.9363 15.2013 12.2619 16.3205 13.4369C17.4396 14.6119 17.9991 15.9977 17.9991 17.5343C18.0302 19.824 17.222 21.6015 15.6055 22.9271ZM13.1496 0.451914C11.9373 0.150638 10.6627 0 9.29489 0C9.2638 0 9.23272 0 9.23272 0C7.181 0.0301276 5.96863 1.08459 5.71993 2.56084C5.59559 3.34416 5.81319 4.12748 6.31058 4.94092C6.43492 4.79029 6.55927 4.66978 6.74579 4.51914C8.02034 3.73582 10.3518 3.73582 13.0564 4.66978C13.7092 4.9108 14.2687 5.12169 14.8905 5.36271L16.8178 1.80766C15.5433 1.14485 14.3309 0.662807 13.1496 0.451914ZM11.9994 19.372C11.8129 19.6432 11.5331 19.8541 11.2223 20.0348C10.5073 20.4265 9.38815 20.5771 8.26903 20.5771C6.59036 20.5771 4.66299 20.1252 2.42475 19.1009L0.341953 22.897C1.30564 23.3489 4.10343 24.8251 8.1136 24.9758C9.29489 25.0662 10.4451 24.8854 11.0668 24.7347C13.6159 23.9514 13.3051 21.0592 11.9994 19.372Z" fill="#FEFEFE" fill-opacity="0.65"/>
</svg>
