<svg width="18" height="18" viewBox="0 0 18 18" fill="none" xmlns="http://www.w3.org/2000/svg">
<circle class="circle" cx="9" cy="9" r="8" stroke="#FCADD3" stroke-width="2"/>
<path class="question" d="M7.64795 10.9214V10.4517C7.64795 10.0454 7.7347 9.69206 7.9082 9.3916C8.08171 9.09115 8.39909 8.77165 8.86035 8.43311C9.30469 8.11572 9.59668 7.85758 9.73633 7.65869C9.88021 7.4598 9.95215 7.23763 9.95215 6.99219C9.95215 6.71712 9.85059 6.50765 9.64746 6.36377C9.44434 6.21989 9.16081 6.14795 8.79688 6.14795C8.16211 6.14795 7.43848 6.35531 6.62598 6.77002L5.93408 5.37988C6.87777 4.85091 7.87858 4.58643 8.93652 4.58643C9.80827 4.58643 10.5002 4.7959 11.0122 5.21484C11.5285 5.63379 11.7866 6.19238 11.7866 6.89062C11.7866 7.35612 11.6808 7.75814 11.4692 8.09668C11.2576 8.43522 10.8556 8.81608 10.2632 9.23926C9.85693 9.53971 9.5988 9.76823 9.48877 9.9248C9.38298 10.0814 9.33008 10.2866 9.33008 10.5405V10.9214H7.64795ZM7.44482 13.0923C7.44482 12.7368 7.54004 12.4681 7.73047 12.2861C7.9209 12.1042 8.19808 12.0132 8.56201 12.0132C8.91325 12.0132 9.18408 12.1063 9.37451 12.2925C9.56917 12.4787 9.6665 12.7453 9.6665 13.0923C9.6665 13.4266 9.56917 13.6911 9.37451 13.8857C9.17985 14.0762 8.90902 14.1714 8.56201 14.1714C8.20654 14.1714 7.93148 14.0783 7.73682 13.8921C7.54215 13.7017 7.44482 13.4351 7.44482 13.0923Z" fill="#FCADD3"/>
</svg>
