<svg width="31" height="31" viewBox="0 0 31 31" fill="none" xmlns="http://www.w3.org/2000/svg">
<path fill-rule="evenodd" clip-rule="evenodd" d="M15.5 31C24.0603 31 31 24.0605 31 15.5C31 6.93943 24.0603 0 15.5 0C6.93961 0 0 6.93943 0 15.5C0 24.0605 6.93961 31 15.5 31ZM22.7027 18.2371C22.537 18.0752 22.3713 17.9132 22.2079 17.7489C21.6516 17.1897 21.6161 16.8649 22.0639 16.2209C22.3226 15.8466 22.5922 15.4803 22.8617 15.114C23.0998 14.7901 23.338 14.4665 23.5685 14.1377C24.0283 13.4811 24.4985 12.8276 24.7403 12.0432C24.8936 11.5433 24.7577 11.323 24.2609 11.2356C24.1763 11.2209 24.0879 11.2193 24.0005 11.2193L21.053 11.2167C20.6899 11.2095 20.489 11.373 20.3608 11.7052C20.188 12.1533 20.0096 12.6017 19.8022 13.0331C19.3345 14.0147 18.8113 14.9626 18.0781 15.7649C17.9157 15.9421 17.7373 16.1653 17.4665 16.0741C17.1283 15.9458 17.0292 15.3713 17.0343 15.178L17.0317 11.6715C16.9658 11.1713 16.8587 10.948 16.3767 10.85H13.3143C13.0957 10.85 12.9355 10.8969 12.8003 10.9809C12.6829 11.0536 12.5845 11.1542 12.4833 11.2765C12.3578 11.4286 12.3193 11.5281 12.5782 11.5788C13.0858 11.678 13.3723 12.0174 13.4476 12.5415C13.5705 13.3816 13.5613 14.2232 13.4913 15.0663C13.4701 15.3116 13.429 15.558 13.3353 15.7864C13.1874 16.1474 12.9481 16.2209 12.634 15.9991C12.3499 15.799 12.1504 15.5144 11.9548 15.2298C11.2202 14.1608 10.6351 13.0074 10.1567 11.7953C10.0181 11.4452 9.78021 11.233 9.4209 11.2273C8.89756 11.2182 8.37457 11.214 7.8517 11.2159C7.49041 11.2174 7.12921 11.2216 6.76801 11.2288C6.23566 11.2383 6.07721 11.505 6.29395 12.0023C7.25691 14.21 8.32841 16.3571 9.72761 18.3112C10.4462 19.3149 11.2718 20.2012 12.3365 20.8292C13.5441 21.5414 14.8441 21.7552 16.2139 21.6887C16.8549 21.6583 17.0477 21.4855 17.0767 20.8278C17.0979 20.3771 17.1467 19.929 17.362 19.5244C17.5733 19.1267 17.8944 19.051 18.2643 19.2986C18.4493 19.4223 18.604 19.579 18.7519 19.7455C19.1126 20.1526 19.4601 20.5719 19.8352 20.9659C20.3041 21.4582 20.8616 21.7484 21.5605 21.6887L24.2702 21.6898C24.7061 21.6599 24.9333 21.1085 24.6824 20.6071C24.5053 20.2548 24.2739 19.9415 24.0295 19.6376C23.6226 19.1351 23.1629 18.6863 22.7027 18.2371Z" fill="white" fill-opacity="0.5"/>
</svg>
