<svg width="80" height="80" viewBox="0 0 80 80" fill="none" xmlns="http://www.w3.org/2000/svg">
<path d="M40 80C62.0914 80 80 62.0914 80 40C80 17.9086 62.0914 0 40 0C17.9086 0 0 17.9086 0 40C0 62.0914 17.9086 80 40 80Z" fill="#F47EB7"/>
<path d="M39.9995 68.8438C59.0102 68.8438 74.4214 53.4326 74.4214 34.4219C74.4214 15.4112 59.0102 0 39.9995 0C20.9888 0 5.57764 15.4112 5.57764 34.4219C5.57764 53.4326 20.9888 68.8438 39.9995 68.8438Z" fill="#FCADD3"/>
<path d="M39.5937 41.7813C39.3593 41.7813 39.1249 41.6719 38.953 41.4844C38.6718 41.1407 38.7187 40.6251 39.078 40.3438L53.7187 28.5C54.0624 28.2188 54.578 28.2657 54.8593 28.625C55.1405 28.9688 55.0937 29.4844 54.7343 29.7657L40.0937 41.6094C39.953 41.7188 39.7655 41.7813 39.5937 41.7813Z" fill="#D15993"/>
<path d="M42.1719 41.2032L41.6563 25.7345C41.625 25.0001 40.5781 24.9063 40.4219 25.6251L37.0156 40.7188" fill="#D15993"/>
<path d="M52.2814 65.922C47.1876 68.4063 41.3283 69.4063 35.3751 68.5157C17.922 65.8751 6.84388 48.0782 12.2033 31.2501C16.7189 17.0313 31.5314 8.48447 46.297 11.9688C60.8908 15.422 70.2345 29.4063 68.2033 43.9532C68.0626 44.9376 67.1095 45.6095 66.1408 45.3751C65.3439 45.1876 64.6408 45.9376 64.8751 46.7188L67.7658 56.3595C68.0626 57.3751 69.3595 57.672 70.0783 56.9063L76.9845 49.5782C77.547 48.9845 77.2501 48.0001 76.4533 47.8126L76.2501 47.7657C75.3908 47.5626 74.8283 46.7188 74.9689 45.8438C78.4533 24.922 62.8751 4.67197 40.0001 4.1876C26.1251 3.89072 13.3126 11.8438 7.40638 24.4063C-2.65612 45.8282 9.70326 69.7032 31.4064 74.8438C39.7814 76.8282 48.172 75.6876 55.3439 72.1876C57.0626 71.3438 57.6876 69.2345 56.6876 67.6095L56.3908 67.1407C55.5314 65.7501 53.7501 65.2032 52.2814 65.922Z" fill="#D15993"/>
<path d="M40 80C62.0914 80 80 62.0914 80 40C80 17.9086 62.0914 0 40 0C17.9086 0 0 17.9086 0 40C0 62.0914 17.9086 80 40 80Z" fill="#AE4EB9"/>
<path d="M39.9995 68.8438C59.0102 68.8438 74.4214 53.4326 74.4214 34.4219C74.4214 15.4112 59.0102 0 39.9995 0C20.9888 0 5.57764 15.4112 5.57764 34.4219C5.57764 53.4326 20.9888 68.8438 39.9995 68.8438Z" fill="#CA73D3"/>
<path d="M39.5937 41.7813C39.3593 41.7813 39.1249 41.6719 38.953 41.4844C38.6718 41.1407 38.7187 40.6251 39.078 40.3438L53.7187 28.5C54.0624 28.2188 54.578 28.2657 54.8593 28.625C55.1405 28.9688 55.0937 29.4844 54.7343 29.7657L40.0937 41.6094C39.953 41.7188 39.7655 41.7813 39.5937 41.7813Z" fill="#7E2E87"/>
<path d="M42.1719 41.2032L41.6563 25.7345C41.625 25.0001 40.5781 24.9063 40.4219 25.6251L37.0156 40.7188" fill="#7E2E87"/>
<path d="M52.2814 65.922C47.1876 68.4063 41.3283 69.4063 35.3751 68.5157C17.922 65.8751 6.84388 48.0782 12.2033 31.2501C16.7189 17.0313 31.5314 8.48447 46.297 11.9688C60.8908 15.422 70.2345 29.4063 68.2033 43.9532C68.0626 44.9376 67.1095 45.6095 66.1408 45.3751C65.3439 45.1876 64.6408 45.9376 64.8751 46.7188L67.7658 56.3595C68.0626 57.3751 69.3595 57.672 70.0783 56.9063L76.9845 49.5782C77.547 48.9845 77.2501 48.0001 76.4533 47.8126L76.2501 47.7657C75.3908 47.5626 74.8283 46.7188 74.9689 45.8438C78.4533 24.922 62.8751 4.67197 40.0001 4.1876C26.1251 3.89072 13.3126 11.8438 7.40638 24.4063C-2.65612 45.8282 9.70326 69.7032 31.4064 74.8438C39.7814 76.8282 48.172 75.6876 55.3439 72.1876C57.0626 71.3438 57.6876 69.2345 56.6876 67.6095L56.3908 67.1407C55.5314 65.7501 53.7501 65.2032 52.2814 65.922Z" fill="#7E2E87"/>
<path d="M39.5005 45.3906C42.0893 45.3906 44.188 43.292 44.188 40.7031C44.188 38.1143 42.0893 36.0156 39.5005 36.0156C36.9116 36.0156 34.813 38.1143 34.813 40.7031C34.813 43.292 36.9116 45.3906 39.5005 45.3906Z" fill="#7E2E87"/>
<path d="M39.5 64.5C38.6406 64.5 37.9531 63.8125 37.9531 62.9531V58.3437C37.9531 57.4844 38.6406 56.7969 39.5 56.7969C40.3594 56.7969 41.0469 57.4844 41.0469 58.3437V62.9531C41.0469 63.7969 40.3594 64.5 39.5 64.5Z" fill="#7E2E87"/>
<path d="M39.5 23.2031C38.6406 23.2031 37.9531 22.5156 37.9531 21.6563V17.0469C37.9531 16.1875 38.6406 15.5 39.5 15.5C40.3594 15.5 41.0469 16.1875 41.0469 17.0469V21.6563C41.0469 22.5156 40.3594 23.2031 39.5 23.2031Z" fill="#7E2E87"/>
<path d="M50.9691 61.422C50.4378 61.422 49.9066 61.1407 49.6253 60.6407L49.0628 59.6876C48.6409 58.9532 48.8909 58.0001 49.6253 57.5626C50.3753 57.1407 51.3128 57.3907 51.7503 58.1251L52.3128 59.0938C52.7347 59.8282 52.4847 60.7813 51.7503 61.2188C51.5003 61.3595 51.2347 61.422 50.9691 61.422Z" fill="#7E2E87"/>
<path d="M28.5779 22.6407C28.0467 22.6407 27.5154 22.3594 27.2342 21.8594L26.6717 20.8907C26.2498 20.1563 26.4998 19.2032 27.2342 18.7657C27.9842 18.3438 28.9217 18.5938 29.3592 19.3282L29.9217 20.2969C30.3436 21.0313 30.0936 21.9844 29.3592 22.4219C29.1092 22.5782 28.8436 22.6407 28.5779 22.6407Z" fill="#7E2E87"/>
<path d="M59.3593 53.0155C59.0937 53.0155 58.8281 52.953 58.5781 52.8124L57.6093 52.2499C56.8749 51.828 56.6093 50.8749 57.0468 50.1249C57.4687 49.3905 58.4218 49.1249 59.1718 49.5624L60.1406 50.1249C60.8749 50.5468 61.1406 51.4999 60.7031 52.2499C60.4218 52.7499 59.9062 53.0155 59.3593 53.0155Z" fill="#7E2E87"/>
<path d="M20.5942 30.6404C20.3285 30.6404 20.0629 30.5779 19.8129 30.4373L18.8442 29.8748C18.1098 29.4529 17.8442 28.4998 18.2817 27.7498C18.7035 27.0154 19.6567 26.7498 20.4067 27.1873L21.3754 27.7498C22.1098 28.1717 22.3754 29.1248 21.9379 29.8748C21.641 30.3592 21.1254 30.6404 20.5942 30.6404Z" fill="#7E2E87"/>
<path d="M62.437 41.547H57.8276C56.9683 41.547 56.2808 40.8595 56.2808 40.0001C56.2808 39.1407 56.9683 38.4532 57.8276 38.4532H62.437C63.2964 38.4532 63.9839 39.1407 63.9839 40.0001C63.9839 40.8595 63.2964 41.547 62.437 41.547Z" fill="#7E2E87"/>
<path d="M21.1562 41.547H16.5469C15.6875 41.547 15 40.8595 15 40.0001C15 39.1407 15.6875 38.4532 16.5469 38.4532H21.1562C22.0156 38.4532 22.7031 39.1407 22.7031 40.0001C22.7031 40.8595 22.0156 41.547 21.1562 41.547Z" fill="#7E2E87"/>
<path d="M58.4061 30.6407C57.8748 30.6407 57.3436 30.3594 57.0623 29.8594C56.6404 29.1251 56.8904 28.1719 57.6248 27.7344L58.5936 27.1719C59.3279 26.7501 60.2811 27.0001 60.7186 27.7344C61.1404 28.4688 60.8904 29.4219 60.1561 29.8594L59.1873 30.4219C58.9373 30.5626 58.6717 30.6407 58.4061 30.6407Z" fill="#7E2E87"/>
<path d="M19.6253 53.0157C19.0941 53.0157 18.5628 52.7345 18.2816 52.2345C17.8597 51.5001 18.1097 50.5469 18.8441 50.1094L19.8128 49.5469C20.5628 49.1251 21.5003 49.3751 21.9378 50.1094C22.3597 50.8438 22.1097 51.797 21.3753 52.2345L20.4066 52.797C20.1566 52.9532 19.8909 53.0157 19.6253 53.0157Z" fill="#7E2E87"/>
<path d="M50.4062 22.6406C50.1405 22.6406 49.8749 22.5781 49.6249 22.4374C48.8905 22.0156 48.6249 21.0624 49.0624 20.3124L49.6249 19.3437C50.0468 18.6093 50.9999 18.3437 51.7499 18.7812C52.4843 19.203 52.7499 20.1562 52.3124 20.9062L51.7499 21.8749C51.4687 22.3593 50.9374 22.6406 50.4062 22.6406Z" fill="#7E2E87"/>
<path d="M28.0155 61.4218C27.7499 61.4218 27.4843 61.3593 27.2343 61.2187C26.4999 60.7968 26.2343 59.8437 26.6718 59.0937L27.2343 58.1249C27.6562 57.3905 28.6093 57.1249 29.3593 57.5624C30.0937 57.9843 30.3593 58.9374 29.9218 59.6874L29.3593 60.6562C29.078 61.1405 28.5624 61.4218 28.0155 61.4218Z" fill="#7E2E87"/>
<path d="M39.5005 45.3906C42.0893 45.3906 44.188 43.292 44.188 40.7031C44.188 38.1143 42.0893 36.0156 39.5005 36.0156C36.9116 36.0156 34.813 38.1143 34.813 40.7031C34.813 43.292 36.9116 45.3906 39.5005 45.3906Z" fill="#7E2E87"/>
<path d="M39.5 64.5C38.6406 64.5 37.9531 63.8125 37.9531 62.9531V58.3437C37.9531 57.4844 38.6406 56.7969 39.5 56.7969C40.3594 56.7969 41.0469 57.4844 41.0469 58.3437V62.9531C41.0469 63.7969 40.3594 64.5 39.5 64.5Z" fill="#7E2E87"/>
<path d="M39.5 23.2031C38.6406 23.2031 37.9531 22.5156 37.9531 21.6563V17.0469C37.9531 16.1875 38.6406 15.5 39.5 15.5C40.3594 15.5 41.0469 16.1875 41.0469 17.0469V21.6563C41.0469 22.5156 40.3594 23.2031 39.5 23.2031Z" fill="#7E2E87"/>
<path d="M50.9691 61.422C50.4378 61.422 49.9066 61.1407 49.6253 60.6407L49.0628 59.6876C48.6409 58.9532 48.8909 58.0001 49.6253 57.5626C50.3753 57.1407 51.3128 57.3907 51.7503 58.1251L52.3128 59.0938C52.7347 59.8282 52.4847 60.7813 51.7503 61.2188C51.5003 61.3595 51.2347 61.422 50.9691 61.422Z" fill="#7E2E87"/>
<path d="M28.5779 22.6407C28.0467 22.6407 27.5154 22.3594 27.2342 21.8594L26.6717 20.8907C26.2498 20.1563 26.4998 19.2032 27.2342 18.7657C27.9842 18.3438 28.9217 18.5938 29.3592 19.3282L29.9217 20.2969C30.3436 21.0313 30.0936 21.9844 29.3592 22.4219C29.1092 22.5782 28.8436 22.6407 28.5779 22.6407Z" fill="#7E2E87"/>
<path d="M59.3593 53.0155C59.0937 53.0155 58.8281 52.953 58.5781 52.8124L57.6093 52.2499C56.8749 51.828 56.6093 50.8749 57.0468 50.1249C57.4687 49.3905 58.4218 49.1249 59.1718 49.5624L60.1406 50.1249C60.8749 50.5468 61.1406 51.4999 60.7031 52.2499C60.4218 52.7499 59.9062 53.0155 59.3593 53.0155Z" fill="#7E2E87"/>
<path d="M20.5942 30.6404C20.3285 30.6404 20.0629 30.5779 19.8129 30.4373L18.8442 29.8748C18.1098 29.4529 17.8442 28.4998 18.2817 27.7498C18.7035 27.0154 19.6567 26.7498 20.4067 27.1873L21.3754 27.7498C22.1098 28.1717 22.3754 29.1248 21.9379 29.8748C21.641 30.3592 21.1254 30.6404 20.5942 30.6404Z" fill="#7E2E87"/>
<path d="M62.437 41.547H57.8276C56.9683 41.547 56.2808 40.8595 56.2808 40.0001C56.2808 39.1407 56.9683 38.4532 57.8276 38.4532H62.437C63.2964 38.4532 63.9839 39.1407 63.9839 40.0001C63.9839 40.8595 63.2964 41.547 62.437 41.547Z" fill="#7E2E87"/>
<path d="M21.1562 41.547H16.5469C15.6875 41.547 15 40.8595 15 40.0001C15 39.1407 15.6875 38.4532 16.5469 38.4532H21.1562C22.0156 38.4532 22.7031 39.1407 22.7031 40.0001C22.7031 40.8595 22.0156 41.547 21.1562 41.547Z" fill="#7E2E87"/>
<path d="M58.4061 30.6407C57.8748 30.6407 57.3436 30.3594 57.0623 29.8594C56.6404 29.1251 56.8904 28.1719 57.6248 27.7344L58.5936 27.1719C59.3279 26.7501 60.2811 27.0001 60.7186 27.7344C61.1404 28.4688 60.8904 29.4219 60.1561 29.8594L59.1873 30.4219C58.9373 30.5626 58.6717 30.6407 58.4061 30.6407Z" fill="#7E2E87"/>
<path d="M19.6253 53.0157C19.0941 53.0157 18.5628 52.7345 18.2816 52.2345C17.8597 51.5001 18.1097 50.5469 18.8441 50.1094L19.8128 49.5469C20.5628 49.1251 21.5003 49.3751 21.9378 50.1094C22.3597 50.8438 22.1097 51.797 21.3753 52.2345L20.4066 52.797C20.1566 52.9532 19.8909 53.0157 19.6253 53.0157Z" fill="#7E2E87"/>
<path d="M50.4062 22.6406C50.1405 22.6406 49.8749 22.5781 49.6249 22.4374C48.8905 22.0156 48.6249 21.0624 49.0624 20.3124L49.6249 19.3437C50.0468 18.6093 50.9999 18.3437 51.7499 18.7812C52.4843 19.203 52.7499 20.1562 52.3124 20.9062L51.7499 21.8749C51.4687 22.3593 50.9374 22.6406 50.4062 22.6406Z" fill="#7E2E87"/>
<path d="M28.0155 61.4218C27.7499 61.4218 27.4843 61.3593 27.2343 61.2187C26.4999 60.7968 26.2343 59.8437 26.6718 59.0937L27.2343 58.1249C27.6562 57.3905 28.6093 57.1249 29.3593 57.5624C30.0937 57.9843 30.3593 58.9374 29.9218 59.6874L29.3593 60.6562C29.078 61.1405 28.5624 61.4218 28.0155 61.4218Z" fill="#7E2E87"/>
</svg>
