<svg width="80" height="79" viewBox="0 0 80 79" fill="none" xmlns="http://www.w3.org/2000/svg">
<g clip-path="url(#clip0)">
<path d="M58.3051 43.8842H61.0169V72.7282H58.3051V43.8842Z" fill="#F47EB7"/>
<path d="M43.356 9.54602C42.5085 11.881 42.0339 22.6632 42.0339 25.3416C42.0339 36.3469 49.9322 45.2577 59.661 45.2577C69.3899 45.2577 77.2882 36.3469 77.2882 25.3416C77.2882 22.6632 76.8136 11.881 75.9661 9.54602H43.356Z" fill="#FCADD3"/>
<path d="M42.0848 23.2812C42.0509 24.1569 42.0339 24.878 42.0339 25.3415C42.0339 36.3469 49.9322 45.2576 59.661 45.2576C69.3899 45.2576 77.2882 36.3469 77.2882 25.3415C77.2882 24.878 77.2712 24.1569 77.2373 23.2812H42.0848Z" fill="#D15993"/>
<path d="M47.4576 27.4019H50.1694V30.1489H47.4576V27.4019Z" fill="#FCADD3"/>
<path d="M56.9491 28.7754H59.661V31.5224H56.9491V28.7754Z" fill="#FCADD3"/>
<path d="M54.2372 35.6429H56.9491V38.39H54.2372V35.6429Z" fill="#FCADD3"/>
<path d="M66.4406 35.6429H69.1525V38.39H66.4406V35.6429Z" fill="#FCADD3"/>
<path d="M70.5084 27.4019H73.2203V30.1489H70.5084V27.4019Z" fill="#FCADD3"/>
<path d="M65.0679 33.1535L62.4069 32.6384L67.8306 3.79436C67.9153 3.31363 68.2713 2.90157 68.7289 2.74705L76.8645 0L77.7289 2.6097L70.3391 5.09921L65.0679 33.1535Z" fill="#F47EB7"/>
<path d="M46.1017 71.3546H70.5085L73.2203 76.8487H46.1017V71.3546Z" fill="#F47EB7"/>
<path d="M42.0339 75.4752H80V78.2223H42.0339V75.4752Z" fill="#D15993"/>
<path d="M42.0339 76.8487C48.7736 76.8487 54.2373 71.3142 54.2373 64.487C54.2373 57.6598 48.7736 52.1252 42.0339 52.1252C35.2941 52.1252 29.8305 57.6598 29.8305 64.487C29.8305 71.3142 35.2941 76.8487 42.0339 76.8487Z" fill="#F47EB7"/>
<path d="M32.5424 71.3546H2.71186L0 41.1371H35.2542L32.5424 71.3546Z" fill="#FCADD3"/>
<path d="M33.8983 56.2458H1.3559L2.71183 71.3546H32.5423L33.8983 56.2458Z" fill="#D15993"/>
<path d="M26.1187 53.9624L19.0678 49.8418C17.7627 49.0864 16.1187 49.5328 15.3559 50.8548L12.2881 56.2459H27.4576C27.4407 55.3016 26.9322 54.4431 26.1187 53.9624Z" fill="#F47EB7"/>
<path d="M2.71185 71.3546H32.5424V76.8487H2.71185V71.3546Z" fill="#FCADD3"/>
<path d="M12.3051 61.7399L19.3559 65.8605C20.6441 66.6159 22.3051 66.1696 23.0508 64.8475L27.1186 57.7052C27.3729 57.2588 27.4915 56.7438 27.4746 56.2458H12.3051L11.3051 57.9799C10.5593 59.3019 11 60.9845 12.3051 61.7399Z" fill="#FCADD3"/>
<path d="M17.6271 58.9929H20.3389V61.74H17.6271V58.9929Z" fill="#FCADD3"/>
<path d="M5.42371 63.1135H8.13557V65.8606H5.42371V63.1135Z" fill="#FCADD3"/>
<path d="M27.1187 65.8606H29.8305V68.6076H27.1187V65.8606Z" fill="#FCADD3"/>
<path d="M46.1017 63.6801C43.8475 63.6801 42.0339 61.8258 42.0339 59.5595C42.0339 58.4607 42.4577 57.4134 43.2204 56.6407L45.1356 58.5809C44.6102 59.1131 44.6102 59.9887 45.1356 60.521C45.678 61.036 46.5255 61.036 47.0509 60.521L48.9661 62.4611C48.2204 63.2508 47.1865 63.6801 46.1017 63.6801Z" fill="#FCADD3"/>
</g>
<defs>
<clipPath id="clip0">
<rect width="80" height="78.2222" fill="white"/>
</clipPath>
</defs>
</svg>
