<svg width="51" height="36" viewBox="0 0 51 36" fill="none" xmlns="http://www.w3.org/2000/svg">
<g clip-path="url(#clip0)">
<path fill-rule="evenodd" clip-rule="evenodd" d="M26.1527 35.6403C26.0177 35.6403 25.8826 35.5504 25.7926 35.4156L10.4431 1.0785C10.3531 0.898726 10.4431 0.674007 10.6231 0.584119C10.8032 0.494231 11.0283 0.584119 11.1183 0.763894L26.1077 34.247L39.5217 0.629063C39.6117 0.449287 39.8368 0.314456 40.0168 0.404344C40.1969 0.494231 40.3319 0.71895 40.2419 0.898726L26.5128 35.3706C26.4678 35.5055 26.3328 35.5954 26.1527 35.6403Z" fill="#FBB03B"/>
<path fill-rule="evenodd" clip-rule="evenodd" d="M34.6604 14.2923C34.4803 14.2923 34.3003 14.1574 34.3003 13.9777C34.2552 13.7529 34.3903 13.5732 34.6153 13.5282L50.1899 10.3821C50.415 10.3372 50.595 10.472 50.6401 10.6968C50.6851 10.9215 50.55 11.1012 50.325 11.1462L34.7504 14.2923C34.7054 14.2923 34.6604 14.2923 34.6604 14.2923Z" fill="#FBB03B"/>
<path fill-rule="evenodd" clip-rule="evenodd" d="M16.6549 14.382C16.6099 14.382 16.6099 14.382 16.5649 14.382L0.675219 11.4157C0.450153 11.3708 0.315113 11.191 0.360126 10.9663C0.405139 10.7416 0.585192 10.6067 0.810258 10.6517L16.6999 13.6629C16.925 13.7079 17.06 13.8876 17.015 14.1124C17.015 14.2472 16.835 14.382 16.6549 14.382Z" fill="#FBB03B"/>
<path fill-rule="evenodd" clip-rule="evenodd" d="M39.9718 22.0672C39.7467 22.0672 39.4767 21.9324 39.3416 21.7526L25.5676 2.42679L12.3337 21.8875C12.1086 22.247 11.6135 22.3369 11.2533 22.1122C10.8932 21.8875 10.8032 21.3931 11.0733 21.0335L24.9374 0.673982C25.0724 0.449263 25.2975 0.359375 25.5676 0.359375C25.7926 0.359375 26.0627 0.494206 26.1977 0.673982L40.602 20.8987C40.827 21.2583 40.782 21.7077 40.4219 21.9774C40.2869 22.0223 40.1068 22.0672 39.9718 22.0672Z" fill="#FBB03B"/>
<path fill-rule="evenodd" clip-rule="evenodd" d="M34.6603 14.6965L16.655 14.7864C16.2499 14.7864 15.8898 14.4269 15.8898 14.0224C15.8898 13.6179 16.2049 13.2583 16.655 13.2583L34.6603 13.1685C35.0654 13.1685 35.4255 13.4831 35.4255 13.9325C35.4255 14.337 35.0654 14.6965 34.6603 14.6965Z" fill="#FBB03B"/>
<path fill-rule="evenodd" clip-rule="evenodd" d="M26.1527 36C25.9726 36 25.7476 35.9101 25.6125 35.7753L0.225066 11.5955C0.0900265 11.4157 0 11.236 0 11.0112C0 10.8315 0.0900265 10.6067 0.225066 10.4719L10.263 0.359551C10.3981 0.224719 10.5781 0.134831 10.8032 0.134831L39.8817 0C40.1068 0 40.2868 0.0898876 40.4219 0.224719L50.7749 10.427C51.09 10.7416 51.09 11.191 50.7749 11.5056L26.6929 35.7753C26.5578 35.9101 26.3778 36 26.1527 36ZM1.84554 11.0112L26.1527 34.1573L49.1545 11.0112L39.6116 1.57303L11.1183 1.66292L1.84554 11.0112Z" fill="#FBB03B"/>
</g>
<defs>
<clipPath id="clip0">
<rect width="51" height="36" fill="white"/>
</clipPath>
</defs>
</svg>
