<?xml version="1.0" standalone="no"?>
<!DOCTYPE svg PUBLIC "-//W3C//DTD SVG 20010904//EN"
 "http://www.w3.org/TR/2001/REC-SVG-20010904/DTD/svg10.dtd">
<svg version="1.0" xmlns="http://www.w3.org/2000/svg"
 width="816.000000pt" height="816.000000pt" viewBox="0 0 816.000000 816.000000"
 preserveAspectRatio="xMidYMid meet">
<metadata>
Created by potrace 1.11, written by Peter Selinger 2001-2013
</metadata>
<g transform="translate(0.000000,816.000000) scale(0.100000,-0.100000)"
fill="#000000" stroke="none">
<path d="M4447 6953 c-1 -1 -616 -4 -1367 -7 -1028 -5 -1372 -9 -1395 -18 -17
-7 -239 -223 -512 -498 -265 -267 -631 -635 -812 -818 -182 -183 -338 -346
-346 -362 -19 -36 -19 -61 -1 -103 15 -36 20 -42 205 -217 72 -69 167 -159
210 -200 43 -41 147 -140 231 -220 84 -80 176 -167 205 -195 28 -27 125 -120
215 -205 90 -85 209 -198 264 -251 56 -54 126 -120 156 -149 30 -29 129 -122
219 -208 90 -87 186 -177 212 -202 144 -137 368 -351 409 -390 112 -107 370
-353 425 -405 33 -31 129 -123 214 -204 84 -80 175 -166 201 -191 26 -25 123
-118 216 -206 93 -89 188 -179 210 -200 23 -22 113 -107 200 -191 270 -258
288 -274 311 -290 31 -21 80 -27 113 -13 15 6 383 370 818 808 435 438 964
973 1177 1187 1527 1538 1906 1922 1919 1940 19 25 20 78 2 113 -8 15 -209
219 -448 454 -238 234 -550 542 -693 683 -586 578 -560 553 -596 560 -29 5
-1957 3 -1962 -2z m1807 -262 c-3 -9 -17 -43 -29 -76 -27 -73 -121 -308 -139
-350 -7 -16 -32 -79 -56 -140 -23 -60 -48 -123 -56 -140 -7 -16 -31 -77 -54
-135 -22 -58 -45 -114 -50 -125 -4 -11 -22 -56 -40 -100 -17 -44 -35 -89 -40
-100 -21 -52 -35 -91 -32 -97 1 -5 -2 -8 -8 -8 -5 0 -10 -6 -10 -12 0 -11 -36
-103 -105 -273 -4 -11 -9 -24 -11 -30 -4 -15 -64 -159 -68 -162 -2 -2 -16 16
-32 39 -16 23 -35 49 -41 58 -7 8 -44 60 -82 115 -38 55 -74 105 -78 110 -5 6
-35 48 -68 95 -33 47 -63 90 -68 95 -4 6 -69 96 -142 200 -74 105 -138 195
-142 200 -5 6 -56 77 -113 158 -58 82 -127 179 -155 217 -96 132 -230 321
-240 338 -5 9 -12 19 -15 22 -22 21 -77 109 -69 112 5 2 446 4 980 4 898 2
970 1 963 -15z m-2374 3 c0 -3 -24 -40 -53 -82 -30 -43 -103 -149 -163 -237
-60 -88 -155 -227 -211 -310 -56 -82 -141 -208 -190 -280 -48 -71 -91 -131
-95 -133 -4 -2 -8 -8 -8 -13 0 -7 -57 -96 -70 -109 -3 -3 -23 -32 -45 -65 -22
-33 -42 -62 -45 -65 -3 -3 -9 -13 -15 -22 -23 -38 -211 -314 -223 -326 -6 -8
-17 -22 -23 -33 -5 -11 -27 -44 -48 -74 l-39 -55 -62 138 c-67 145 -93 204
-95 212 -1 3 -11 25 -22 50 -11 25 -89 198 -173 385 -84 187 -162 363 -175
390 -13 28 -42 93 -65 145 -23 52 -52 118 -65 145 -47 99 -145 326 -145 333 0
4 457 8 1015 9 558 1 1015 0 1015 -3z m3556 -1072 c202 -199 365 -365 363
-367 -4 -4 -195 -44 -239 -50 -14 -2 -65 -12 -115 -24 -49 -11 -102 -22 -117
-25 -15 -2 -63 -12 -105 -20 -100 -21 -122 -25 -153 -31 -14 -2 -70 -14 -125
-25 -55 -12 -111 -23 -125 -26 -14 -3 -126 -25 -250 -50 -124 -25 -234 -47
-245 -50 -11 -2 -155 -31 -320 -64 -371 -76 -355 -73 -355 -63 0 8 139 365
160 408 12 28 231 578 234 590 3 11 9 25 50 122 14 34 26 69 26 78 0 8 5 15
12 15 6 0 9 3 6 6 -3 3 19 65 49 137 30 73 56 137 57 142 1 6 10 27 19 49 9
21 17 41 17 43 0 3 6 19 14 36 8 18 26 63 41 101 15 39 31 79 36 90 11 23 -21
53 1065 -1022z m-5672 956 c43 -94 62 -138 196 -438 67 -151 134 -300 147
-330 14 -30 61 -136 105 -235 44 -99 87 -193 94 -210 7 -16 67 -149 132 -295
65 -146 115 -266 111 -268 -6 -2 -273 46 -414 74 -11 3 -36 7 -55 10 -19 3
-42 7 -50 9 -8 2 -31 7 -50 10 -19 3 -42 8 -50 10 -8 2 -30 7 -47 10 -73 12
-96 16 -190 36 -54 11 -105 20 -113 21 -8 0 -35 5 -60 10 -25 5 -56 12 -70 14
-14 3 -84 16 -157 30 -73 14 -145 27 -160 30 -25 4 -77 14 -153 29 -14 3 -41
8 -60 11 -19 4 -39 7 -45 9 -5 1 -26 5 -45 8 -19 4 -48 10 -65 13 -16 3 -40 7
-52 9 -12 2 -34 6 -50 9 -15 4 -40 9 -56 11 -35 6 -59 11 -127 25 -30 6 -69
13 -86 15 -83 12 -84 10 57 150 71 72 387 390 702 708 315 317 574 577 577
577 3 0 18 -28 34 -62z m2604 -396 c315 -442 306 -429 400 -559 45 -62 82
-118 82 -122 0 -5 4 -11 8 -13 4 -1 33 -39 65 -83 31 -44 62 -88 69 -97 7 -10
23 -33 36 -50 13 -18 81 -115 153 -215 71 -100 129 -184 129 -187 0 -3 -177
-6 -392 -6 -216 -1 -757 -3 -1202 -5 l-808 -4 19 22 c11 12 62 85 113 162 118
175 207 307 217 320 4 6 37 53 72 105 127 189 186 275 191 280 3 3 10 13 15
22 6 10 69 104 141 210 73 106 179 263 237 348 58 85 122 179 142 208 l37 54
22 -31 c11 -17 126 -179 254 -359z m3377 -1103 c-22 -22 -331 -333 -686 -691
l-646 -651 -32 44 c-18 24 -49 67 -69 95 -20 28 -46 64 -57 79 -11 15 -38 53
-60 85 -105 151 -210 295 -217 298 -5 2 -8 10 -8 17 0 7 -4 15 -8 17 -7 3 -79
101 -107 147 -5 9 -13 18 -16 21 -3 3 -27 37 -54 75 -26 39 -52 73 -58 76 -11
8 1 16 34 23 32 6 629 126 654 132 11 2 31 6 45 9 43 8 124 24 150 30 14 3 36
7 50 10 36 5 228 45 270 55 19 5 51 12 70 15 29 4 56 10 100 20 3 1 25 5 50 9
25 5 53 10 63 12 107 24 172 37 187 39 8 1 29 5 45 8 17 4 39 9 50 11 106 21
158 31 205 42 84 19 87 17 45 -27z m-7220 -24 c28 -5 55 -9 60 -11 6 -1 28 -5
50 -9 22 -3 47 -8 55 -10 8 -3 76 -16 150 -29 74 -14 151 -28 170 -32 19 -3
44 -8 55 -10 11 -2 34 -6 50 -9 26 -5 69 -13 165 -31 14 -2 50 -9 80 -15 30
-6 64 -12 75 -14 11 -2 46 -8 78 -14 31 -6 81 -15 110 -20 28 -6 88 -17 132
-25 44 -8 95 -18 114 -21 19 -3 37 -7 40 -9 3 -2 29 -7 56 -10 28 -4 57 -9 65
-11 8 -2 27 -6 43 -9 90 -16 160 -29 222 -41 72 -14 112 -21 178 -32 20 -3 37
-7 37 -9 0 -2 -25 -40 -55 -85 -30 -45 -55 -85 -55 -89 0 -5 -4 -10 -9 -12 -7
-2 -235 -333 -266 -386 -5 -9 -12 -19 -15 -22 -3 -3 -35 -48 -70 -100 -153
-227 -184 -270 -191 -268 -4 2 -83 75 -175 163 -168 160 -309 295 -388 370
-24 22 -116 111 -207 197 -90 86 -191 182 -224 213 -33 32 -134 128 -224 214
-90 86 -166 158 -170 161 -3 3 -12 13 -20 23 -13 16 -12 17 10 9 13 -5 47 -13
74 -17z m3439 -458 c6 7 1456 12 1456 5 0 -5 -163 -419 -184 -467 -8 -16 -22
-52 -32 -80 -10 -27 -24 -61 -31 -75 -7 -14 -13 -30 -13 -36 0 -6 -6 -24 -14
-40 -8 -16 -50 -119 -93 -229 -44 -110 -84 -209 -88 -220 -5 -11 -9 -22 -10
-25 -1 -3 -9 -22 -18 -44 -9 -21 -17 -40 -17 -41 0 -1 -8 -20 -17 -41 -9 -22
-18 -45 -19 -52 -1 -8 -9 -28 -17 -45 -8 -18 -27 -63 -41 -102 -15 -38 -31
-79 -36 -90 -5 -11 -109 -270 -230 -575 -122 -305 -227 -568 -234 -585 -7 -16
-42 -103 -77 -191 -38 -98 -67 -160 -74 -157 -7 2 -22 27 -35 56 -12 29 -34
77 -48 107 -13 30 -41 93 -62 140 -21 47 -49 111 -64 142 -14 31 -26 59 -26
61 0 3 -18 45 -41 94 -23 48 -49 106 -59 128 -10 22 -34 74 -53 115 -19 41
-40 92 -47 113 -8 20 -18 37 -22 37 -4 0 -7 3 -6 8 2 9 -5 25 -111 261 -50
111 -135 301 -190 424 -93 210 -112 252 -166 372 -13 28 -34 75 -48 105 -13
30 -34 78 -47 105 -12 28 -28 64 -35 80 -7 17 -24 55 -38 85 -14 30 -43 96
-65 145 -22 50 -53 119 -70 155 -54 117 -152 341 -152 348 0 4 243 8 541 9
297 0 542 3 545 6 2 2 22 1 44 -3 22 -4 42 -5 44 -3z m1586 -70 c0 -7 10 -23
23 -37 12 -14 35 -44 50 -68 15 -23 34 -50 42 -60 8 -9 57 -78 109 -152 53
-74 102 -144 110 -155 91 -124 346 -487 346 -493 0 -13 -1801 -1825 -1807
-1818 -3 2 3 18 11 35 9 17 16 32 15 33 -1 5 272 697 305 773 7 17 23 57 36
90 12 33 28 74 35 90 7 17 24 59 38 95 14 36 31 79 38 95 7 17 13 32 14 35 1
3 8 19 15 35 7 17 14 35 15 40 2 6 24 62 50 125 26 63 48 120 49 125 1 6 4 15
7 20 7 12 273 678 274 685 0 3 3 10 6 15 3 6 50 121 104 258 86 218 115 278
115 234z m-2850 -36 c0 -5 17 -47 39 -93 21 -45 89 -198 151 -338 62 -140 130
-292 151 -338 22 -46 39 -85 39 -87 0 -2 13 -32 29 -67 58 -126 84 -185 138
-308 31 -69 67 -150 80 -180 14 -30 54 -120 90 -200 36 -80 78 -173 94 -208
16 -35 29 -65 29 -67 0 -2 18 -42 40 -89 22 -47 40 -88 40 -90 0 -3 16 -40 36
-83 20 -43 62 -136 94 -208 32 -71 74 -166 95 -210 20 -44 46 -102 56 -128
l19 -49 -28 24 c-16 12 -27 26 -25 31 2 4 0 7 -5 7 -5 0 -40 30 -79 68 -39 37
-132 126 -208 197 -75 72 -170 162 -210 200 -40 39 -135 129 -211 202 -76 72
-166 158 -200 190 -34 32 -130 123 -214 203 -84 80 -197 188 -251 240 -54 52
-151 145 -215 205 -181 170 -234 224 -234 234 0 6 14 30 30 53 43 61 123 178
135 197 6 9 12 18 15 21 3 3 31 43 62 90 31 47 98 146 148 220 51 74 129 188
172 253 72 106 98 134 98 108z"/>
</g>
</svg>
